<?xml version="1.0" encoding="utf-8"?>
<!-- Generator: Adobe Illustrator 16.0.0, SVG Export Plug-In . SVG Version: 6.00 Build 0)  -->
<!DOCTYPE svg PUBLIC "-//W3C//DTD SVG 1.1//EN" "http://www.w3.org/Graphics/SVG/1.1/DTD/svg11.dtd">
<svg version="1.1" id="Ebene_1" xmlns="http://www.w3.org/2000/svg" xmlns:xlink="http://www.w3.org/1999/xlink" x="0px" y="0px"
	 width="798.992px" height="480.756px" viewBox="0 0 798.992 480.756" enable-background="new 0 0 798.992 480.756"
	 xml:space="preserve">
<g id="Layer_2">
	<path id="dp_path001" fill="#FFFFFF" stroke="#FFFFFF" stroke-width="1.3333" d="M0.999,39.756h798v402h-798V39.756z"/>
	<path id="dp_path002" stroke="#000000" stroke-miterlimit="10" d="M361,41.756h79.001v399.997H361V41.756z"/>
	<path id="dp_path003" d="M1,41.756l266,134h-58.035L0,71.756L1,41.756z"/>
	<path id="dp_path004" d="M476,174.089L742,40.756h56.683l-265.35,134L476,174.089z"/>
	<path id="dp_path005" d="M534.667,308.089h57.368l206.632,102.667v28.675L534.667,308.089z"/>
	<path id="dp_path006" d="M2,440.756h59.468l263.865-132.667h-57.349L2,440.756z"/>
	<path id="dp_path007" stroke="#00247D" stroke-width="1.3333" d="M712.276,40.947h-245.05v121.405L712.276,40.947z"/>
	<path id="dp_path008" stroke="#00247D" stroke-width="1.3333" d="M624.097,175.132h173.808V87.629L624.097,175.132z"/>
	<path id="dp_path009" stroke="#00247D" stroke-width="1.3333" d="M625.055,307.72h173.164v86.586L625.055,307.72z"/>
	<path id="dp_path010" stroke="#00247D" stroke-width="1.3333" d="M467.228,320.181v120.851H709.4L467.228,320.181z"/>
	<path id="dp_path011" stroke="#00247D" stroke-width="1.3333" d="M90.867,441.267h242.495V319.995L90.867,441.267z"/>
	<path id="dp_path012" stroke="#00247D" stroke-width="1.3333" d="M1.412,395.58v-87.549h174.82L1.412,395.58z"/>
	<path id="dp_path013" stroke="#00247D" stroke-width="1.3333" d="M1.73,86.953v87.556h175.138L1.73,86.953z"/>
	<path id="dp_path014" stroke="#00247D" stroke-width="1.3333" d="M333.999,162.992V41.24H90.775L333.999,162.992z"/>
	<path id="dp_path015" stroke="#000000" stroke-width="1.3333" d="M0,201.756h800v80H0V201.756z"/>
</g>
</svg>
