<?xml version="1.0" encoding="utf-8"?>
<!-- Generator: Adobe Illustrator 16.0.0, SVG Export Plug-In . SVG Version: 6.00 Build 0)  -->
<!DOCTYPE svg PUBLIC "-//W3C//DTD SVG 1.1//EN" "http://www.w3.org/Graphics/SVG/1.1/DTD/svg11.dtd">
<svg version="1.1" id="Layer_1" xmlns="http://www.w3.org/2000/svg" xmlns:xlink="http://www.w3.org/1999/xlink" x="0px" y="0px"
	 width="94.806px" height="74.063px" viewBox="0.001 0 94.806 74.063" enable-background="new 0.001 0 94.806 74.063"
	 xml:space="preserve">
<g>
	<path d="M42.382,33.079H4.971L33.847,7.326C26.602-3.42,15.634-1.505,5.888,7.635c-10.881,10.203-3.665,20.799-2,24.807
		c0.117,0.244,0.262,0.48,0.399,0.716C3.519,43.483,13.64,54.506,13.64,54.506l-0.628,19.558h15.66l1.371-12.866
		c0,0,0.774,1.299,5.391,1.688c4.617,0.391,4.052-5.242,4.052-5.242s3.074-1.356,3.074-2.375c0-1.017-1.819-2.329-1.819-2.329
		s1.959,0.355,2.669-0.469c0.699-0.82-0.864-3.796-0.864-3.796s2.407-0.063,3.831-1.624c1.417-1.561-4.475-6.183-4.475-9.163
		C42.245,36.179,42.373,34.59,42.382,33.079z"/>
	<path d="M88.918,8.424c-9.743-9.14-20.714-11.056-27.956-0.312l28.876,25.753h-37.41c0.006,1.516,0.134,3.103,0.479,4.809
		c0,2.98-5.892,7.597-4.474,9.16c1.427,1.563,3.831,1.624,3.831,1.624s-1.566,2.978-0.865,3.799c0.705,0.821,2.67,0.469,2.67,0.469
		s-1.822,1.313-1.822,2.328c0,1.02,3.076,2.373,3.076,2.373s-0.564,5.635,4.05,5.242c4.613-0.39,5.394-1.686,5.394-1.686
		l1.371,12.077h15.66l-0.626-18.766c0,0,10.118-11.027,9.353-21.349c0.137-0.239,0.279-0.472,0.396-0.719
		C92.588,29.222,99.802,18.626,88.918,8.424z"/>
	<path d="M23.747,29.053l3.085,1.697c0.082-0.148,8.241-14.72,19.593-13.632c7.449,0.714,11.146,3.61,12.84,5.569l-2.442,0.916
		l7.111,5.947l1.477-9.154l-2.693,1.004c-1.808-2.523-6.267-6.857-15.957-7.786C33.163,12.322,24.125,28.372,23.747,29.053z"/>
</g>
</svg>
