<?xml version="1.0" encoding="utf-8"?>
<!-- Generator: Adobe Illustrator 16.0.0, SVG Export Plug-In . SVG Version: 6.00 Build 0)  -->
<!DOCTYPE svg PUBLIC "-//W3C//DTD SVG 1.1//EN" "http://www.w3.org/Graphics/SVG/1.1/DTD/svg11.dtd">
<svg version="1.1" id="Capa_1" xmlns="http://www.w3.org/2000/svg" xmlns:xlink="http://www.w3.org/1999/xlink" x="0px" y="0px"
	 width="1122.042px" height="961.915px" viewBox="0 160.51 1122.042 961.915" enable-background="new 0 160.51 1122.042 961.915"
	 xml:space="preserve">
<g id="_x33__13_">
	<g>
		<path d="M1051.915,572.76L841.532,710.177c0-41.707-19.357-78.604-49.302-103.819c71.287-42.084,119.43-117.903,119.43-205.369
			c0-132.813-109.892-240.479-245.449-240.479c-135.555,0-245.445,107.666-245.445,240.479c0,67.369,28.438,128.107,74.021,171.771
			H366.171c33.592-36.519,54.594-84.374,54.594-137.417c0-113.85-94.181-206.125-210.382-206.125
			C94.181,229.218,0,321.493,0,435.343C0,497.455,28.647,552.49,73.003,590.28C29.699,613.675,0,658.302,0,710.177v274.831
			c0,75.89,62.799,137.417,140.255,137.417h561.021c77.458,0,140.256-61.527,140.256-137.417l210.383,137.417
			c38.743,0,70.128-30.747,70.128-68.708V641.468C1122.042,603.506,1090.658,572.76,1051.915,572.76z M210.383,572.76
			c-77.457,0-140.255-61.528-140.255-137.417c0-75.888,62.799-137.417,140.255-137.417c77.456,0,140.254,61.529,140.254,137.417
			C350.637,511.231,287.839,572.76,210.383,572.76z M666.21,573.138c-97.054,0-175.703-77.091-175.703-172.149
			c0-95.092,78.683-172.148,175.703-172.148c97.024,0,175.708,77.057,175.708,172.148
			C841.918,496.081,763.268,573.138,666.21,573.138z"/>
	</g>
</g>
</svg>
