<?xml version="1.0" encoding="utf-8"?>
<!-- Generator: Adobe Illustrator 16.0.0, SVG Export Plug-In . SVG Version: 6.00 Build 0)  -->
<!DOCTYPE svg PUBLIC "-//W3C//DTD SVG 1.1//EN" "http://www.w3.org/Graphics/SVG/1.1/DTD/svg11.dtd">
<svg version="1.1" id="Ebene_1" xmlns="http://www.w3.org/2000/svg" xmlns:xlink="http://www.w3.org/1999/xlink" x="0px" y="0px"
	 width="297.45px" height="419.852px" viewBox="0 0 297.45 419.852" enable-background="new 0 0 297.45 419.852"
	 xml:space="preserve">
<g>
	<polygon fill="#E45027" points="27.07,386.131 0,82.511 297.45,82.511 270.352,386.082 148.543,419.852 	"/>
	<polygon fill="#EC672C" points="148.725,394.04 247.152,366.752 270.31,107.336 148.725,107.336 	"/>
	<polygon fill="#EBEBEB" points="148.725,219.945 99.45,219.945 96.046,181.813 148.725,181.813 148.725,144.574 148.596,144.574 
		55.35,144.574 56.242,154.565 65.394,257.182 148.725,257.182 	"/>
	<polygon fill="#EBEBEB" points="148.725,316.653 148.562,316.699 107.09,305.5 104.438,275.803 84.287,275.803 67.058,275.803 
		72.275,334.27 148.553,355.445 148.725,355.397 	"/>
	<path fill="#020303" d="M27.675,0h18.924v18.696H63.91V0h18.925v56.618H63.911V37.66h-17.31v18.958H27.675V0L27.675,0z"/>
	<path fill="#020303" d="M107.719,18.775h-16.66V0h52.252v18.775h-16.667v37.843H107.72L107.719,18.775L107.719,18.775z"/>
	<path fill="#020303" d="M151.604,0h19.733l12.137,19.894L195.601,0h19.738v56.618h-18.846V28.555l-13.021,20.13h-0.325
		l-13.027-20.13v28.063h-18.518L151.604,0L151.604,0z"/>
	<path fill="#020303" d="M224.757,0h18.93v37.903h26.612v18.714h-45.542V0L224.757,0z"/>
	<polygon fill="#FFFFFF" points="148.596,219.945 148.596,257.182 194.451,257.182 190.128,305.475 148.596,316.686 
		148.596,355.428 224.936,334.27 225.496,327.979 234.246,229.944 235.154,219.945 225.121,219.945 	"/>
	<polygon fill="#FFFFFF" points="148.596,144.574 148.596,167.702 148.596,181.721 148.596,181.813 238.423,181.813 
		238.423,181.813 238.542,181.813 239.291,173.443 240.986,154.565 241.876,144.574 	"/>
</g>
<g>
</g>
<g>
</g>
<g>
</g>
<g>
</g>
<g>
</g>
<g>
</g>
</svg>
