<?xml version="1.0" encoding="utf-8"?>
<!-- Generator: Adobe Illustrator 16.0.0, SVG Export Plug-In . SVG Version: 6.00 Build 0)  -->
<!DOCTYPE svg PUBLIC "-//W3C//DTD SVG 1.1//EN" "http://www.w3.org/Graphics/SVG/1.1/DTD/svg11.dtd">
<svg version="1.1" id="Layer_1" xmlns="http://www.w3.org/2000/svg" xmlns:xlink="http://www.w3.org/1999/xlink" x="0px" y="0px"
	 width="333.403px" height="452.055px" viewBox="9.781 0 333.403 452.055" enable-background="new 9.781 0 333.403 452.055"
	 xml:space="preserve">
<g>
	<path fill="#0074BD" d="M117.151,349.592c0,0-17.265,10.049,12.301,13.44c35.824,4.09,54.13,3.501,93.596-3.959
		c0,0,10.396,6.504,24.893,12.137C159.439,409.127,47.644,369.014,117.151,349.592L117.151,349.592z"/>
	<path fill="#0074BD" d="M106.331,300.104c0,0-19.367,14.339,10.221,17.397c38.271,3.951,68.483,4.275,120.792-5.792
		c0,0,7.218,7.332,18.585,11.339C148.943,354.342,29.782,325.51,106.331,300.104L106.331,300.104z"/>
	<path fill="#EA2D2E" d="M197.494,216.145c21.817,25.115-5.722,47.697-5.722,47.697s55.367-28.577,29.945-64.38
		c-23.752-33.373-41.962-49.951,56.623-107.124C278.342,92.338,123.587,130.979,197.494,216.145L197.494,216.145z"/>
	<path fill="#0074BD" d="M314.542,386.202c0,0,12.781,10.536-14.077,18.684c-51.071,15.47-212.604,20.136-257.47,0.619
		c-16.117-7.021,14.121-16.75,23.635-18.805c9.92-2.146,15.584-1.755,15.584-1.755c-17.937-12.631-115.935,24.808-49.772,35.545
		C212.871,449.736,361.337,407.316,314.542,386.202L314.542,386.202z"/>
	<path fill="#0074BD" d="M125.46,248.822c0,0-82.155,19.519-29.092,26.613c22.412,2.999,67.063,2.309,108.686-1.183
		c34.006-2.854,68.133-8.958,68.133-8.958s-11.982,5.14-20.658,11.06C169.085,298.301,7.917,288.08,54.322,265.642
		C93.549,246.665,125.46,248.822,125.46,248.822L125.46,248.822z"/>
	<path fill="#0074BD" d="M272.847,331.198c84.817-44.063,45.597-86.412,18.223-80.708c-6.694,1.396-9.697,2.607-9.697,2.607
		s2.494-3.907,7.243-5.588c54.154-19.03,95.794,56.146-17.464,85.919C271.149,333.428,272.453,332.248,272.847,331.198
		L272.847,331.198z"/>
	<path fill="#EA2D2E" d="M221.719,0c0,0,46.964,46.99-44.557,119.227c-73.393,57.969-16.734,91.009-0.026,128.778
		c-42.845-38.653-74.271-72.684-53.192-104.352C154.898,97.174,240.663,74.632,221.719,0L221.719,0z"/>
	<path fill="#0074BD" d="M133.799,450.637c81.397,5.204,206.426-2.896,209.385-41.414c0,0-5.688,14.602-67.275,26.188
		c-69.481,13.081-155.197,11.558-206.016,3.167C69.892,438.577,80.303,447.194,133.799,450.637L133.799,450.637z"/>
</g>
</svg>
