<?xml version="1.0" encoding="utf-8"?>
<!-- Generator: Adobe Illustrator 16.0.0, SVG Export Plug-In . SVG Version: 6.00 Build 0)  -->
<!DOCTYPE svg PUBLIC "-//W3C//DTD SVG 1.1//EN" "http://www.w3.org/Graphics/SVG/1.1/DTD/svg11.dtd">
<svg version="1.1" id="Layer_1" xmlns="http://www.w3.org/2000/svg" xmlns:xlink="http://www.w3.org/1999/xlink" x="0px" y="0px"
	 width="297.449px" height="419.95px" viewBox="363.275 22.525 297.449 419.95"
	 enable-background="new 363.275 22.525 297.449 419.95" xml:space="preserve">
<g>
	<polygon fill="#E4A227" points="390.345,408.754 363.275,105.132 660.725,105.132 633.627,408.705 511.818,442.475 	"/>
	<polygon fill="#F0BF26" points="511.75,416.287 610.178,389 633.336,129.583 511.75,129.583 	"/>
	<g>
		<polygon fill="#151515" points="564.936,38.071 540.246,38.071 565.922,65.931 565.922,79.191 513.039,79.191 513.039,63.665 
			538.709,63.665 513.039,35.806 513.039,22.525 564.936,22.525 		"/>
		<path fill="#020202" d="M503.621,22.55v56.617h-45.543V60.453h26.613V22.55h18.928H503.621z"/>
	</g>
	<polygon fill="#EBEBEB" points="511.693,338.926 511.531,338.973 470.059,327.773 467.406,298.075 447.256,298.075 
		430.027,298.075 435.244,356.543 511.521,377.719 511.693,377.67 	"/>
	<polygon fill="#EBEBEB" points="516.709,279.437 516.709,242.2 470.855,242.2 476.232,183.758 516.813,182.677 516.709,143.954 
		442.565,143.954 439.811,171.403 431.059,269.438 430.151,279.437 440.186,279.437 	"/>
	<polygon fill="#FFFFFF" points="516.457,182.729 516.62,182.683 557.291,185.132 560.742,223.579 580.893,223.579 598.123,223.579 
		591.609,151.633 516.629,143.937 516.457,143.985 	"/>
	<polyline fill="#FFFFFF" points="594.284,182.843 591.093,143.954 512.49,143.954 512.49,168.106 512.49,182.746 512.49,182.843 
		594.284,182.843 	"/>
	<polygon fill="#FFFFFF" points="511.564,242.218 511.564,279.454 557.418,279.454 553.096,327.748 511.564,338.959 
		511.564,377.701 587.904,356.543 588.463,350.252 597.215,252.217 598.123,242.218 588.088,242.218 	"/>
	<path fill="#FFFFFF" d="M589.5,181.193"/>
</g>
</svg>
