<?xml version="1.0" encoding="utf-8"?>
<!-- Generator: Adobe Illustrator 16.0.0, SVG Export Plug-In . SVG Version: 6.00 Build 0)  -->
<!DOCTYPE svg PUBLIC "-//W3C//DTD SVG 1.1//EN" "http://www.w3.org/Graphics/SVG/1.1/DTD/svg11.dtd">
<svg version="1.1"
	 id="svg1430" sodipodi:version="0.32" inkscape:version="0.41" sodipodi:docname="tux.svg" sodipodi:docbase="/home/jake" xmlns:cc="http://web.resource.org/cc/" xmlns:sodipodi="http://inkscape.sourceforge.net/DTD/sodipodi-0.dtd" xmlns:svg="http://www.w3.org/2000/svg" xmlns:dc="http://purl.org/dc/elements/1.1/" xmlns:rdf="http://www.w3.org/1999/02/22-rdf-syntax-ns#" xmlns:inkscape="http://www.inkscape.org/namespaces/inkscape"
	 xmlns="http://www.w3.org/2000/svg" xmlns:xlink="http://www.w3.org/1999/xlink" x="0px" y="0px" width="253.67px"
	 height="288.789px" viewBox="15.881 9.74 253.67 288.789" enable-background="new 15.881 9.74 253.67 288.789"
	 xml:space="preserve">
<polygon fill="#FFFFFF" points="214.802,146.306 194.802,269.639 115.469,276.639 65.469,214.972 109.802,103.972 167.135,87.639 
	"/>
<sodipodi:namedview  inkscape:document-units="px" inkscape:pageshadow="2" inkscape:window-height="694" inkscape:window-width="1016" inkscape:pageopacity="0.0" inkscape:current-layer="svg1430" inkscape:window-y="0" inkscape:window-x="0" bordercolor="#666666" pagecolor="#ffffff" borderopacity="1.0" inkscape:cx="372.04723" inkscape:cy="526.18109" inkscape:zoom="0.34398804" id="base">
	</sodipodi:namedview>
<path id="path1487" fill="#CFCFCF" d="M79.994,296.042c-11.912-4.133-17.779-5.919-28.307-8.616
	c-5.561-1.425-13.066-3.389-16.681-4.364c-3.614-0.977-8.529-2.249-10.922-2.83c-8.896-2.157-10.207-6.63-5.62-19.177
	c2.641-7.222,2.655-7.406,1.422-18.515c-1.098-9.896-1.055-11.603,0.366-14.454c2.289-4.594,4.93-5.791,14.311-6.486
	c8.871-0.657,10.345-1.363,13.732-6.585c1.994-3.072,2.083-3.792,0.978-7.9c-1.719-6.389-0.157-11.958,6.438-22.953
	c3.494-5.825,7.123-13.937,10.085-22.542c2.545-7.394,5.496-15.036,6.557-16.984c1.062-1.948,6.506-8.959,12.1-15.579
	s11.396-14.246,12.893-16.946l2.723-4.909l-1.329-27.831c-1.523-31.904-1.008-37.438,4.519-48.42
	c6.432-12.784,18.383-20.338,33.393-21.105c10.496-0.537,17.852,0.974,27.771,5.703c9.798,4.671,15.646,10.079,20.59,19.04
	c4.945,8.963,6.443,16.213,7.728,37.394c1.239,20.431,2.363,24.148,12.289,40.651c6.99,11.622,8.345,13.426,17.036,22.684
	c9.149,9.745,17.228,27.161,21.191,45.688c2.442,11.418,2.538,16.781,0.467,26.319l-1.566,7.213l2.577,3.617
	c1.915,2.688,2.577,4.858,2.577,8.447c0,3.76,0.607,5.598,2.741,8.292c4.081,5.153,7.361,8.105,12.424,11.18
	c5.897,3.582,7.078,5.018,7.069,8.595c-0.013,5.781-3.896,9.424-16.674,15.638c-10.844,5.272-19.461,10.934-27.931,18.347
	c-9.693,8.484-14.121,10.219-24.896,9.752c-6.706-0.291-8.668-0.779-12.292-3.063c-2.371-1.495-5.067-3.999-5.991-5.564
	s-2.817-3.159-4.208-3.541c-1.39-0.383-15.276-0.695-30.859-0.695c-27.851,0-28.381,0.036-31.224,2.166
	c-1.59,1.192-3.433,2.167-4.096,2.167c-0.662,0-2.307,1.141-3.654,2.534C101.547,298.789,91.653,300.087,79.994,296.042z
	 M147.314,265.959c9.198-2.098,19.13-7.192,26.355-13.521l5.301-4.643l-1.245-6.436c-1.624-8.397-0.355-13.444,3.908-15.545
	c2.712-1.335,2.996-1.931,2.996-6.266c0-6.146,2.343-8.642,8.112-8.642c5.469,0,6.041-1.697,6.041-17.918
	c0-17.67-3.101-32.114-6.617-30.828c-0.783,0.286-3.777-1.44-6.747-3.89c-4.975-4.104-13.957-8.963-16.605-8.985
	c-0.637-0.005-4.162-0.893-7.835-1.974c-8.113-2.387-8.837-4.404-1.876-5.224c2.642-0.311,7.305-1.081,10.362-1.712
	c3.059-0.632,6.806-1.027,8.328-0.879c2.611,0.254,2.735,0.09,2.2-2.92c-1.136-6.38-3.742-12.959-7.68-19.379
	c-5.657-9.229-8.927-10.009-15.812-3.777c-5.093,4.61-18.954,12.799-24.234,14.318c-3.923,1.128-4.752,1.055-8.594-0.76
	c-2.622-1.238-5.448-3.717-7.374-6.467c-1.718-2.452-3.743-4.459-4.501-4.459c-1.889,0-11.024,14.822-11.746,19.058
	c-0.478,2.804-0.136,3.84,1.87,5.668c1.35,1.23,3.319,2.707,4.377,3.282c1.735,0.941,1.383,1.377-3.598,4.453
	c-8.245,5.092-11.466,8.874-17.048,20.021c-6.168,12.316-8.152,19.926-8.172,31.337l-0.016,8.707l4.297,3.918
	c2.363,2.154,9.756,8.059,16.429,13.12c12.972,9.841,15.67,12.998,15.67,18.34c0,4.959-0.826,6.302-5.18,8.417
	c-2.155,1.048-3.919,2.347-3.919,2.887c0,1.746,4.432,6.754,7.657,8.652C119.304,267.968,134.578,268.862,147.314,265.959z
	 M118.241,219.018c-0.989-2.456,0.275-38.929,1.387-39.987c1.465-1.396,2.337,9.715,1.405,17.914
	c-0.421,3.707-0.729,10.532-0.683,15.166C120.427,220.01,119.657,222.533,118.241,219.018z M124.637,145.043
	c-1.964-2.854-1.337-3.469,3.546-3.469c4.583,0,4.757,0.699,0.896,3.6l-2.869,2.154L124.637,145.043z M165.074,77.324
	c2.398-5.468,1.209-11.628-2.887-14.954c-5.798-4.708-17.524-3.229-19.103,2.408c-0.407,1.456-0.418,3.797-0.023,5.202
	c0.693,2.472,0.757,2.426,1.959-1.393c2.867-9.116,12.901-10.528,17.25-2.429c1.595,2.971,1.4,8.565-0.413,11.907
	c-1.394,2.566-1.389,2.841,0.051,2.841C162.793,80.907,164.202,79.311,165.074,77.324z M124.554,66.038
	c-0.736-3.742-2.988-5.373-7.341-5.315l-2.847,0.038l3.277,1.356c1.996,0.827,3.943,2.688,4.983,4.766
	C124.687,70.996,125.465,70.655,124.554,66.038z"/>
<path id="path1485" fill="#DFCFAC" d="M79.994,295.075c-5.56-1.895-16.706-5.1-24.769-7.122
	c-31.298-7.852-34.938-8.915-37.152-10.862c-2.988-2.627-2.903-6.049,0.374-15.073c2.44-6.723,2.583-7.975,1.824-15.961
	c-1.936-20.343,0.699-24.359,16.065-24.502c7.375-0.068,8.911-0.863,12.298-6.367c2.428-3.946,2.591-4.743,1.49-7.274
	c-2.243-5.157-0.482-12.735,5.104-21.966c5.878-9.713,9.146-17.11,12.654-28.644c3.238-10.644,5.14-13.802,16.085-26.724
	c9.508-11.225,14.984-18.861,16.227-22.628c0.422-1.278,0.174-14.429-0.552-29.223c-1.51-30.772-0.962-37.394,3.914-47.317
	c9.891-20.133,35.43-26.958,59.553-15.915c10.457,4.787,17.12,10.969,21.965,20.379c4.531,8.8,5.425,13.438,6.706,34.829
	c0.841,14.031,1.489,18.485,3.483,23.92c3.615,9.858,15.222,28.763,22.728,37.022c3.614,3.978,7.952,9.049,9.639,11.271
	c3.564,4.695,10.908,21.929,13.789,32.36c2.733,9.895,3.432,24.714,1.555,32.964c-1.284,5.642-1.286,6.633-0.02,7.634
	c2.689,2.126,4.355,6.456,4.355,11.318c0,4.252,0.517,5.434,4.336,9.918c2.385,2.801,6.593,6.478,9.352,8.172
	c7.609,4.673,8.554,5.718,8.554,9.464c0,4.723-6.279,10.465-16.681,15.255c-11.129,5.124-19.802,10.706-29.22,18.806
	c-6.218,5.349-9.221,7.213-13.542,8.41c-10.471,2.898-22.48-0.431-27.391-7.595c-3.242-4.729-5.657-5.049-38.193-5.049
	c-26.045,0-26.494,0.033-28.877,2.166c-1.332,1.192-2.944,2.167-3.585,2.167c-0.64,0-2.765,1.339-4.722,2.976
	c-3.551,2.971-12.149,6.662-15.479,6.646C90.895,298.524,85.554,296.97,79.994,295.075z M150.257,266.233
	c10.873-3.088,25.297-12.355,30.259-19.443c2.688-3.84,2.9-4.903,3.588-17.994c0.837-15.959,1.364-16.962,9.373-17.851
	c4.334-0.48,4.747-0.768,5.609-3.89c0.513-1.854,0.695-9.87,0.406-17.814c-0.734-20.207-4.753-32.703-13.476-41.899
	c-2.921-3.079-3.947-5.315-5.456-11.893c-4.24-18.482-19.645-38.529-22.175-28.858c-0.646,2.47-3.261,4.516-16.175,12.656
	c-8.874,5.594-9.999,6.046-14.056,5.644c-5.01-0.497-7.122-2.17-10.542-8.354c-1.318-2.383-3.062-4.456-3.873-4.605
	c-1.662-0.307-13.428,17.539-14.995,22.744c-0.957,3.177-0.371,5.616,2.151,8.962c1.001,1.329,0.369,2.345-3.957,6.359
	c-5.744,5.329-12.674,17.439-17.074,29.838c-2,5.635-2.781,10.133-3.169,18.234l-0.515,10.755l4.939,4.326
	c2.717,2.38,10.171,8.271,16.565,13.092c11.267,8.494,16.176,14.075,16.176,18.392c0,2.548-3.861,6.62-7.741,8.164l-3.511,1.397
	l3.084,4.27c3.607,4.993,8.325,8.023,14.42,9.259C126.262,268.969,143.647,268.11,150.257,266.233z M175.784,147.597
	c-3.863-1.832-4.244-3.135-0.915-3.135c2.159,0,5.717,2.595,5.717,4.169C180.586,149.582,179.458,149.339,175.784,147.597z
	 M113.158,82.219c0.354-0.337-0.366-1.962-1.601-3.611c-4.561-6.089-2.066-15.997,4.025-15.997c2.773,0,7.378,4.259,7.378,6.824
	c0,2.3,1.878,3.32,2.638,1.434c1.247-3.095-1.093-8.645-4.591-10.89c-4.458-2.861-5.046-2.788-9.62,1.203l-3.881,3.386l0.565,7.118
	C108.767,80.448,110.737,84.526,113.158,82.219z M165.263,79.222c3.148-7.588,2.104-13.545-3.336-19.039l-3.438-3.474l-5.807,1.022
	c-3.194,0.563-6.845,1.671-8.113,2.462c-3.229,2.016-4.001,6.972-1.814,11.65l1.76,3.767l0.652-3.852
	c1.651-9.766,8.658-13.224,14.674-7.243c2.301,2.287,2.885,3.747,2.885,7.21c0,2.797-0.635,5.009-1.784,6.219
	c-2.01,2.116-1.372,3.925,1.384,3.925C163.391,81.87,164.627,80.758,165.263,79.222z"/>
<path id="path1483" fill="#B2B2B0" d="M88.082,297.838c-1.111-0.262-6.571-2.109-12.131-4.105
	c-5.561-1.996-15.569-5.015-22.241-6.706c-6.673-1.692-13.156-3.469-14.407-3.947c-1.252-0.479-6.028-1.781-10.615-2.895
	c-4.587-1.112-9.136-2.705-10.109-3.54c-2.455-2.104-2.214-6.106,0.88-14.627c2.44-6.723,2.584-7.975,1.824-15.961
	c-1.93-20.287,0.237-23.572,15.56-23.588c6.822-0.007,8.661-0.981,12.271-6.506c2.793-4.273,2.854-4.604,1.362-7.354
	c-2.772-5.106-1.141-12.923,4.722-22.609c5.909-9.765,9.174-17.148,12.687-28.696c3.238-10.644,5.14-13.802,16.085-26.724
	c9.508-11.225,14.984-18.861,16.227-22.628c0.422-1.278,0.174-14.429-0.552-29.223c-1.51-30.772-0.962-37.394,3.914-47.317
	c9.891-20.133,35.43-26.958,59.553-15.915c10.457,4.787,17.12,10.969,21.965,20.379c4.531,8.8,5.425,13.438,6.706,34.829
	c0.841,14.031,1.489,18.485,3.483,23.92c3.615,9.858,15.222,28.763,22.728,37.022c10.198,11.222,12.383,14.531,17.069,25.859
	c8.579,20.74,10.986,36.349,7.836,50.825l-1.64,7.536l2.521,3.147c1.92,2.398,2.521,4.311,2.521,8.026
	c0,4.201,0.537,5.524,3.871,9.539c4.407,5.307,9.555,9.696,14.141,12.059c3.755,1.935,4.942,5.488,3.185,9.531
	c-1.6,3.679-5.516,6.539-15.141,11.056c-11.604,5.446-20.068,11.015-27.286,17.951c-8.828,8.483-13.679,10.793-22.768,10.841
	c-8.763,0.047-15.892-3.01-19.583-8.395c-3.242-4.729-5.657-5.049-38.193-5.049c-26.045,0-26.494,0.033-28.877,2.166
	c-1.332,1.192-2.944,2.167-3.585,2.167c-0.64,0-2.765,1.339-4.722,2.976C101.652,296.641,93.588,299.135,88.082,297.838z
	 M150.257,266.233c10.991-3.121,25.303-12.363,30.382-19.62c2.622-3.746,2.98-5.106,2.98-11.314c0-4.063,0.429-7.058,1.011-7.058
	c0.567,0,1.011-2.667,1.011-6.075c0-7.646,1.276-9.38,7.388-10.036c4.552-0.488,4.781-0.664,5.869-4.477
	c1.826-6.398,0.531-31.333-2.072-39.924c-2.706-8.924-6.216-15.545-10.809-20.388c-2.921-3.079-3.947-5.315-5.456-11.893
	c-4.24-18.482-19.645-38.529-22.175-28.858c-0.646,2.47-3.261,4.516-16.175,12.656c-8.874,5.594-9.999,6.046-14.056,5.644
	c-5.01-0.497-7.122-2.17-10.542-8.354c-1.318-2.383-3.062-4.456-3.873-4.605c-1.662-0.307-13.428,17.539-14.995,22.744
	c-0.957,3.177-0.371,5.616,2.151,8.962c1.001,1.329,0.369,2.345-3.957,6.359c-5.744,5.329-12.674,17.439-17.074,29.838
	c-2,5.635-2.781,10.133-3.169,18.234l-0.515,10.755l4.939,4.326c2.717,2.38,10.171,8.271,16.565,13.092
	c11.313,8.528,16.176,14.075,16.176,18.447c0,2.046-4.732,7.626-6.468,7.626c-0.679,0-2.027,0.553-2.998,1.229
	c-1.643,1.145-1.559,1.499,1.227,5.161c3.586,4.715,8.573,7.818,14.491,9.019C126.262,268.969,143.647,268.11,150.257,266.233z
	 M175.784,147.597c-3.863-1.832-4.244-3.135-0.915-3.135c2.159,0,5.717,2.595,5.717,4.169
	C180.586,149.582,179.458,149.339,175.784,147.597z M113.862,82.26c0-0.315-1.023-1.94-2.275-3.611
	c-4.589-6.128-2.119-16.037,3.996-16.037c2.773,0,7.378,4.259,7.378,6.824c0,2.3,1.878,3.32,2.638,1.434
	c1.247-3.095-1.093-8.645-4.591-10.89c-4.458-2.861-5.046-2.788-9.62,1.203l-3.881,3.386l0.565,7.118
	c0.608,7.664,1.955,11.146,4.309,11.146C113.195,82.833,113.862,82.575,113.862,82.26z M164.768,80.185
	c3.809-7.101,2.783-14.322-2.841-20.002l-3.438-3.474l-5.807,1.022c-3.194,0.563-6.845,1.671-8.113,2.462
	c-3.395,2.118-4.029,7.06-1.564,12.174l2.026,4.206l0.086-3.659c0.229-9.876,8.495-14.591,14.724-8.398
	c3.7,3.679,4.019,9.972,0.708,13.981c-1.197,1.45-1.929,3.019-1.625,3.485C160.079,83.764,163.395,82.744,164.768,80.185z"/>
<path id="path1481" fill="#D1AD60" d="M86.06,296.871c-1.112-0.265-5.661-1.911-10.109-3.659
	c-4.448-1.747-14.229-4.693-21.736-6.547c-37.31-9.211-37.405-9.248-37.405-14.445c0-1.599,1.191-6.19,2.648-10.202
	c2.44-6.723,2.584-7.975,1.824-15.961c-1.937-20.357,0.214-23.572,15.774-23.588c6.648-0.006,8.913-1.307,12.542-7.205
	c2.237-3.638,2.481-4.684,1.498-6.433c-0.718-1.278-0.985-4.599-0.688-8.552c0.42-5.582,1.19-7.627,5.658-15.01
	c6.062-10.016,9.445-17.651,12.415-28.011c2.983-10.405,4.884-13.612,15.577-26.277c5.143-6.091,11.105-13.674,13.25-16.852
	c3.786-5.609,3.9-6.031,3.905-14.444c0.003-4.767-0.396-18.851-0.887-31.297c-0.779-19.768-0.682-23.408,0.777-28.787
	c3.271-12.061,10.718-21.118,20.846-25.354c16.54-6.92,40.898-2.36,53.984,10.104c10.438,9.942,13.287,18.367,14.801,43.78
	c1.208,20.276,2.683,26.089,9.837,38.775c6.911,12.257,12.353,19.909,19.854,27.927c7.289,7.788,10.741,13.815,16.372,28.582
	c6.26,16.416,8.044,31.898,5.306,46.053c-1.126,5.82-1.079,6.109,1.516,9.351c2.083,2.601,2.679,4.43,2.679,8.223
	c0,4.201,0.537,5.524,3.871,9.539c4.407,5.307,9.555,9.696,14.141,12.059c3.755,1.935,4.942,5.488,3.185,9.531
	c-1.6,3.679-5.516,6.539-15.141,11.056c-11.023,5.174-19.744,10.819-27.949,18.095c-3.979,3.528-9.212,7.27-11.627,8.313
	c-5.772,2.495-16.011,2.557-21.619,0.13c-3.736-1.616-8.836-6.225-9.736-8.798c-0.697-1.993-8.487-2.982-27.628-3.51
	c-30.366-0.837-37.11,0.383-47.473,8.584C100.249,296.847,93.114,298.548,86.06,296.871z M152.568,265.951
	c8.963-3.001,17.751-8.53,25.743-16.196l7.329-7.03v-13.317c0-15.774,0.381-16.613,7.848-17.297l5.153-0.472l1.207-6.813
	c1.505-8.503,0.563-24.182-2.107-35.069c-2.223-9.061-6.299-17.33-11.423-23.172c-2.743-3.127-3.933-5.773-5.296-11.784
	c-1.092-4.812-3.436-10.75-6.18-15.655c-2.432-4.348-5.54-10.18-6.908-12.96s-2.735-5.056-3.038-5.056
	c-1.846,0-8.581,3.463-14.899,7.661c-9.568,6.357-16.479,7.943-23.493,5.392c-2.632-0.957-6.847-3.622-9.367-5.922
	c-2.52-2.3-4.97-3.953-5.444-3.674c-0.475,0.28-0.863,2.265-0.863,4.41c0,2.957-1.195,5.801-4.933,11.74
	c-7.631,12.123-8.21,13.515-8.21,19.719c0,5.006-0.46,6.354-3.698,10.838c-5.008,6.935-14.067,25.118-15.93,31.974
	c-0.834,3.07-1.822,9.815-2.196,14.99l-0.681,9.408l3.292,3.571c1.811,1.964,9.6,8.341,17.31,14.171
	c7.709,5.829,14.703,11.863,15.542,13.409c3.279,6.039,1.049,11.451-5.632,13.669c-1.623,0.539-2.952,1.503-2.952,2.141
	c0,2.482,6.346,9.201,10.498,11.116C121.865,269.72,141.006,269.821,152.568,265.951z M113.449,82.469
	c0.294-0.729-0.401-2.787-1.545-4.573c-2.9-4.532-2.739-9.936,0.384-12.911c4.063-3.869,8.416-0.86,11.196,7.737
	c0.602,1.858,0.66,1.862,1.685,0.125c0.583-0.99,0.824-3.798,0.535-6.24c-0.433-3.657-1.211-4.996-4.415-7.596
	c-2.139-1.736-4.734-3.045-5.768-2.908s-3.308,2.136-5.055,4.442c-2.785,3.678-3.163,4.923-3.067,10.111
	C107.556,79.246,111.581,87.105,113.449,82.469z M165.924,79.334c2.896-5.815,1.761-13.396-2.917-19.465
	c-2.751-3.57-4.5-4.962-6.236-4.962c-3.639,0-13.271,4.371-14.516,6.589c-2.325,4.138-0.602,13.324,2.694,14.36
	c0.884,0.277,1.264-0.891,1.264-3.887c0-7.521,5.489-11.893,11.022-8.779c5.379,3.026,6.797,9.924,3.067,14.914
	c-2.379,3.182-1.88,4.729,1.524,4.729C163.539,82.833,164.655,81.88,165.924,79.334z"/>
<path id="path1479" fill="#EECB0F" d="M86.06,296.871c-1.112-0.265-5.661-1.912-10.109-3.661s-11.955-4.106-16.682-5.239
	c-4.726-1.133-9.958-2.475-11.626-2.982c-1.668-0.507-8.492-2.448-15.164-4.314c-6.673-1.866-12.7-4.109-13.396-4.985
	c-1.881-2.37-1.556-5.574,1.388-13.671c2.446-6.73,2.592-8.002,1.876-16.442c-1.026-12.1-0.739-16.432,1.225-18.499
	c2.082-2.191,7.535-3.628,13.962-3.679c6.486-0.051,8.864-1.371,12.618-7.011c2.92-4.385,2.98-4.687,1.401-6.982
	c-1.271-1.847-1.536-3.917-1.155-8.993c0.431-5.736,1.168-7.706,5.668-15.142c6.062-10.016,9.445-17.651,12.415-28.011
	c2.983-10.405,4.884-13.612,15.577-26.277c5.143-6.091,11.105-13.674,13.25-16.852c3.786-5.609,3.9-6.031,3.905-14.444
	c0.003-4.767-0.396-18.851-0.887-31.297c-0.779-19.768-0.682-23.408,0.777-28.787c3.271-12.061,10.718-21.118,20.846-25.354
	c16.54-6.92,40.898-2.36,53.984,10.104c10.438,9.942,13.287,18.367,14.801,43.78c1.208,20.276,2.683,26.089,9.837,38.775
	c6.911,12.257,12.353,19.909,19.854,27.927c3.718,3.972,8.11,9.9,9.763,13.175c4.599,9.111,10.055,24.072,11.646,31.929
	c1.831,9.044,1.808,23.087-0.052,30.489c-1.181,4.699-1.209,5.957-0.149,6.74c2.413,1.785,3.654,5.144,3.654,9.892
	c0,7.189,6.432,15.11,17.674,21.767c3.688,2.185,4.531,3.314,4.552,6.104c0.025,3.571-5.426,8.313-14.993,13.041
	c-13.382,6.612-19.057,10.424-26.946,18.101c-8.911,8.67-14.749,11.489-23.758,11.473c-7.76-0.014-13.543-2.188-17.385-6.537
	c-1.453-1.645-2.807-3.463-3.009-4.04c-0.697-1.993-8.487-2.982-27.628-3.51c-30.366-0.837-37.11,0.383-47.473,8.584
	C100.249,296.847,93.114,298.548,86.06,296.871z M152.568,265.951c3.163-1.06,8.6-3.561,12.082-5.559
	c7.254-4.162,19.435-15.254,20.967-19.092c0.569-1.426,1.034-7.547,1.034-13.604c0-12.864,1.071-14.863,7.965-14.863h3.92
	l1.263-7.731c3.322-20.344-2.619-46.134-13.48-58.518c-2.743-3.127-3.933-5.773-5.296-11.784c-1.092-4.812-3.436-10.75-6.18-15.655
	c-2.432-4.348-5.54-10.18-6.908-12.96c-2.205-4.481-2.839-5.056-5.582-5.056c-1.914,0-3.942,0.848-5.32,2.223
	c-4.811,4.803-14.523,10.33-20.113,11.446c-4.873,0.974-6.272,0.891-10.415-0.616c-2.632-0.957-6.847-3.622-9.367-5.922
	c-2.52-2.3-4.97-3.953-5.444-3.674c-0.475,0.28-0.863,2.265-0.863,4.41c0,2.957-1.195,5.801-4.933,11.74
	c-7.631,12.123-8.21,13.515-8.21,19.719c0,5.006-0.46,6.354-3.698,10.838c-5.008,6.935-14.067,25.118-15.93,31.974
	c-0.834,3.07-1.822,9.815-2.196,14.99l-0.681,9.408l3.292,3.571c1.811,1.964,9.6,8.341,17.31,14.171
	c7.709,5.829,14.703,11.863,15.542,13.409c3.279,6.039,1.049,11.451-5.632,13.669c-1.623,0.539-2.952,1.613-2.952,2.388
	c0,2.482,6.249,8.909,10.624,10.927C121.868,269.721,141.085,269.795,152.568,265.951z M114.164,83.188
	c0.351-0.335-0.483-2.432-1.854-4.659c-3.288-5.344-3.296-10.425-0.022-13.544c4.063-3.869,8.416-0.86,11.196,7.737
	c0.602,1.858,0.66,1.862,1.685,0.125c0.583-0.99,0.824-3.798,0.535-6.24c-0.433-3.657-1.211-4.996-4.415-7.596
	c-2.139-1.736-4.734-3.045-5.768-2.908s-3.308,2.136-5.055,4.442c-2.785,3.678-3.163,4.923-3.067,10.111
	C107.559,79.426,111.143,86.064,114.164,83.188z M165.621,79.944c1.471-2.55,1.858-4.794,1.594-9.22
	c-0.298-4.979-0.922-6.592-4.19-10.834c-2.766-3.588-4.517-4.983-6.254-4.983c-3.639,0-13.271,4.371-14.516,6.589
	c-1.423,2.531-1.276,8.422,0.313,12.612c2.028,5.347,3.645,4.825,3.645-1.176c0-8.502,5.145-13.049,11.022-9.742
	c5.632,3.169,6.759,9.791,2.646,15.557c-1.872,2.625-2.192,3.71-1.264,4.287C160.975,84.5,163.683,83.305,165.621,79.944z"/>
<path id="path1477" fill="#F0B80A" d="M86.06,296.871c-1.112-0.265-5.661-1.912-10.109-3.661s-11.955-4.106-16.682-5.239
	c-4.726-1.133-9.958-2.475-11.626-2.982c-1.668-0.507-8.492-2.448-15.164-4.314c-6.673-1.866-12.7-4.109-13.396-4.985
	c-1.881-2.37-1.556-5.574,1.388-13.671c2.446-6.73,2.592-8.002,1.876-16.442c-1.026-12.1-0.739-16.432,1.225-18.499
	c2.082-2.191,7.535-3.628,13.962-3.679c6.486-0.051,8.864-1.371,12.618-7.011c2.92-4.385,2.98-4.687,1.401-6.982
	c-1.271-1.847-1.536-3.917-1.155-8.993c0.431-5.736,1.168-7.706,5.668-15.142c6.062-10.016,9.445-17.651,12.415-28.011
	c2.983-10.405,4.884-13.612,15.577-26.277c5.143-6.091,11.105-13.674,13.25-16.852c3.786-5.609,3.9-6.031,3.905-14.444
	c0.003-4.767-0.396-18.851-0.887-31.297c-0.779-19.768-0.682-23.408,0.777-28.787c3.271-12.061,10.718-21.118,20.846-25.354
	c16.54-6.92,40.898-2.36,53.984,10.104c10.438,9.942,13.287,18.367,14.801,43.78c1.208,20.276,2.683,26.089,9.837,38.775
	c6.911,12.257,12.353,19.909,19.854,27.927c7.289,7.788,10.741,13.815,16.372,28.582c4.63,12.142,6.467,21.372,6.467,32.497
	c0,7.89-1.96,18.585-4.544,24.799c-0.537,1.291,0.007,1.681,2.693,1.926c3.301,0.302,3.377,0.413,3.873,5.644
	c0.391,4.132,1.248,6.229,3.798,9.295c4.138,4.976,9.421,9.419,13.654,11.485c3.854,1.881,4.752,2.985,4.773,5.868
	c0.025,3.571-5.426,8.313-14.993,13.041c-13.382,6.612-19.057,10.424-26.946,18.101c-8.911,8.67-14.749,11.489-23.758,11.473
	c-7.76-0.014-13.543-2.188-17.385-6.537c-1.453-1.645-2.807-3.463-3.009-4.04c-0.697-1.993-8.487-2.982-27.628-3.51
	c-30.366-0.837-37.11,0.383-47.473,8.584C100.249,296.847,93.114,298.548,86.06,296.871z M152.568,265.951
	c3.163-1.06,8.6-3.561,12.082-5.559c7.254-4.162,19.435-15.254,20.967-19.092c0.569-1.426,1.034-7.359,1.034-13.186
	c0-10.078,0.909-14.318,3.068-14.318c0.537,0,0.976,0.773,0.976,1.719c0,1.472,4.6,5.022,6.508,5.022
	c1.118,0,2.388-4.299,1.563-5.297c-0.438-0.529-0.122-4.213,0.699-8.186c1.087-5.248,1.32-10.294,0.855-18.463
	c-1.072-18.839-5.603-32.431-14.003-42.008c-2.743-3.127-3.933-5.773-5.296-11.784c-1.092-4.812-3.436-10.75-6.18-15.655
	c-2.432-4.348-5.54-10.18-6.908-12.96c-2.205-4.481-2.839-5.056-5.582-5.056c-1.914,0-3.942,0.848-5.32,2.223
	c-4.811,4.803-14.523,10.33-20.113,11.446c-4.873,0.974-6.272,0.891-10.415-0.616c-2.632-0.957-6.847-3.622-9.367-5.922
	c-2.52-2.3-4.97-3.953-5.444-3.674c-0.475,0.28-0.863,2.265-0.863,4.41c0,2.957-1.195,5.801-4.933,11.74
	c-7.631,12.123-8.21,13.515-8.21,19.719c0,5.006-0.46,6.354-3.698,10.838c-5.008,6.935-14.067,25.118-15.93,31.974
	c-0.834,3.07-1.822,9.815-2.196,14.99l-0.681,9.408l3.292,3.571c1.811,1.964,9.6,8.341,17.31,14.171
	c7.709,5.829,14.703,11.863,15.542,13.409c3.279,6.039,1.049,11.451-5.632,13.669c-1.623,0.539-2.952,1.613-2.952,2.388
	c0,2.482,6.249,8.909,10.624,10.927C121.868,269.721,141.085,269.795,152.568,265.951z M94.214,251.074
	c-0.905-1.171-2.599-3.556-3.762-5.3c-3.222-4.83-3.435-2.911-0.263,2.373c3.829,6.379,4.808,7.521,5.283,6.162
	C95.685,253.701,95.118,252.246,94.214,251.074z M85.59,237.936c-1.83-3.418-4.079-5.863-4.079-4.437
	c0,0.855,5.012,8.223,5.594,8.223C87.386,241.722,86.705,240.018,85.59,237.936z M79.838,228.681
	c-0.329-0.817-0.815-1.279-1.08-1.027c-0.266,0.252-0.183,0.921,0.185,1.486C79.938,230.677,80.521,230.378,79.838,228.681z
	 M142.17,98.187c3.058-1.231,8.338-3.89,11.734-5.907c3.396-2.019,7.433-3.669,8.97-3.669c2.314,0,2.588-0.238,1.59-1.383
	c-0.662-0.76-2.651-1.677-4.42-2.036s-5.856-1.703-9.083-2.984c-5.709-2.269-7.343-2.35-15.517-0.769
	c-2.169,0.419-6.456,6.373-7.938,11.023c-0.422,1.324-1.604,3.54-2.627,4.924s-1.531,2.838-1.131,3.231
	C125.107,101.952,136.582,100.438,142.17,98.187z M114.164,83.188c0.351-0.335-0.483-2.432-1.854-4.659
	c-3.288-5.344-3.296-10.425-0.022-13.544c4.063-3.869,8.416-0.86,11.196,7.737c0.602,1.858,0.66,1.862,1.685,0.125
	c0.583-0.99,0.824-3.798,0.535-6.24c-0.433-3.657-1.211-4.996-4.415-7.596c-2.139-1.736-4.734-3.045-5.768-2.908
	s-3.308,2.136-5.055,4.442c-2.785,3.678-3.163,4.923-3.067,10.111C107.559,79.426,111.143,86.064,114.164,83.188z M165.621,79.944
	c1.471-2.55,1.858-4.794,1.594-9.22c-0.298-4.979-0.922-6.592-4.19-10.834c-2.766-3.588-4.517-4.983-6.254-4.983
	c-3.639,0-13.271,4.371-14.516,6.589c-1.423,2.531-1.276,8.422,0.313,12.612c2.028,5.347,3.645,4.825,3.645-1.176
	c0-8.502,5.145-13.049,11.022-9.742c5.632,3.169,6.759,9.791,2.646,15.557c-1.872,2.625-2.192,3.71-1.264,4.287
	C160.975,84.5,163.683,83.305,165.621,79.944z"/>
<path id="path1475" fill="#909090" d="M86.06,296.871c-1.112-0.265-5.661-1.912-10.109-3.661s-11.955-4.106-16.682-5.239
	c-4.726-1.133-9.958-2.475-11.626-2.982c-1.668-0.507-8.492-2.448-15.164-4.314c-6.673-1.866-12.7-4.109-13.396-4.985
	c-1.881-2.37-1.556-5.574,1.388-13.671c2.446-6.73,2.592-8.002,1.876-16.442c-1.026-12.1-0.739-16.432,1.225-18.499
	c2.082-2.191,7.535-3.628,13.962-3.679c6.486-0.051,8.864-1.371,12.618-7.011c2.92-4.385,2.98-4.687,1.401-6.982
	c-1.271-1.847-1.536-3.917-1.155-8.993c0.431-5.736,1.168-7.706,5.668-15.142c6.062-10.016,9.445-17.651,12.415-28.011
	c2.983-10.405,4.884-13.612,15.577-26.277c5.143-6.091,11.105-13.674,13.25-16.852c3.786-5.609,3.9-6.031,3.905-14.444
	c0.003-4.767-0.396-18.851-0.887-31.297c-0.779-19.768-0.682-23.408,0.777-28.787c3.271-12.061,10.718-21.118,20.846-25.354
	c16.54-6.92,40.898-2.36,53.984,10.104c10.438,9.942,13.287,18.367,14.801,43.78c1.208,20.276,2.683,26.089,9.837,38.775
	c6.911,12.257,12.353,19.909,19.854,27.927c7.289,7.788,10.741,13.815,16.372,28.582c4.629,12.14,6.471,21.39,6.452,32.41
	c-0.018,10.32-2.02,19.376-5.554,25.12c-1.386,2.252-2.52,5.062-2.52,6.244c0,2.88-11.673,15.258-16.046,17.015
	c-4.77,1.916-7.927,1.704-13.878-0.936c-9.782-4.339-11.998-10.702-7.403-21.263c1.735-3.988,2.09-5.848,1.333-6.991
	c-0.718-1.083-0.604-3.634,0.372-8.37c0.99-4.802,1.217-10.128,0.766-18.053c-1.072-18.839-5.603-32.431-14.003-42.008
	c-2.743-3.127-3.933-5.773-5.296-11.784c-1.092-4.812-3.436-10.75-6.18-15.655c-2.432-4.348-5.54-10.18-6.908-12.96
	c-2.205-4.481-2.839-5.056-5.582-5.056c-1.914,0-3.942,0.848-5.32,2.223c-4.811,4.803-14.523,10.33-20.113,11.446
	c-4.873,0.974-6.272,0.891-10.415-0.616c-2.632-0.957-6.847-3.622-9.367-5.922c-2.52-2.3-4.97-3.953-5.444-3.674
	c-0.475,0.28-0.863,2.265-0.863,4.41c0,2.957-1.195,5.801-4.933,11.74c-7.631,12.123-8.21,13.515-8.21,19.719
	c0,5.006-0.46,6.354-3.698,10.838c-5.008,6.935-14.067,25.118-15.93,31.974c-0.834,3.07-1.822,9.815-2.196,14.99l-0.681,9.408
	l3.292,3.571c1.811,1.964,9.6,8.341,17.31,14.171c7.709,5.829,14.703,11.863,15.542,13.409c3.279,6.039,1.049,11.451-5.632,13.669
	c-4.104,1.363-3.727,3.529,1.521,8.746c3.238,3.22,5.958,4.874,9.856,5.994c6.283,1.807,21.122,2.023,29.25,0.428
	c11.731-2.302,26.704-11.302,35.691-21.452l4.134-4.669l0.297-11.22c0.164-6.171,0.529-11.858,0.813-12.638
	c0.923-2.536,2.396,0.969,2.418,5.751c0.011,2.383,1.154,7.366,2.542,11.074c2.397,6.406,2.49,7.434,1.877,20.744
	c-0.591,12.846-0.472,14.377,1.448,18.512c2.38,5.123,7.061,8.401,12.005,8.407c3.615,0.004,10.26-2.497,16.325-6.144
	c2.248-1.352,6.28-2.958,8.961-3.57c2.681-0.611,6.434-1.957,8.341-2.989c1.907-1.033,5.616-2.655,8.243-3.605
	c2.626-0.951,7.52-3.74,10.873-6.198c3.354-2.458,6.365-4.059,6.691-3.556c1.218,1.877-5.655,7.519-14.46,11.869
	c-13.382,6.612-19.057,10.424-26.946,18.101c-8.911,8.67-14.749,11.489-23.758,11.473c-7.76-0.014-13.543-2.188-17.385-6.537
	c-1.453-1.645-2.807-3.463-3.009-4.04c-0.697-1.993-8.487-2.982-27.628-3.51c-30.366-0.837-37.11,0.383-47.473,8.584
	C100.249,296.847,93.114,298.548,86.06,296.871z M91.126,281.744c4.649-1.851,7.563-6.577,7.567-12.279
	c0.003-2.484,0.459-4.785,1.015-5.112c0.557-0.327,1.012-1.395,1.012-2.372c0-1.744-5.233-11.221-8.977-16.256
	c-1.046-1.406-4.306-6.457-7.244-11.224c-6.608-10.719-9.196-14.162-15.018-19.981c-7.255-7.253-12.875-6.112-14.63,2.97
	c-1.479,7.655-9.518,12.502-18.791,11.33c-3.889-0.491-5.296-0.252-7.212,1.226c-2.329,1.796-2.354,1.981-1.144,8.7
	c1.742,9.677,1.585,19.763-0.363,23.352c-3.284,6.05-0.098,9.962,8.897,10.924c9.139,0.978,28.206,4.763,38.195,7.582
	C84.55,283.457,86.487,283.59,91.126,281.744z M144.469,97.52c3.717-1.656,8.782-4.339,11.257-5.961
	c4.925-3.227,6.601-3.568,8.568-1.744c1.05,0.973,1.233,0.744,0.96-1.189c-0.291-2.057-1.584-2.817-9.242-5.432
	c-4.897-1.672-9.188-3.31-9.535-3.641c-1.154-1.1-0.146-11.613,1.323-13.779c2.546-3.755,5.403-4.608,9.091-2.717
	c5.938,3.046,7.204,9.785,2.956,15.734c-2.47,3.458-2.485,3.584-0.562,4.405c2.89,1.234,4.581,0.266,6.594-3.774
	c2.943-5.908,1.837-13.444-2.872-19.554c-2.751-3.57-4.5-4.962-6.236-4.962c-3.639,0-13.271,4.371-14.516,6.589
	c-1.504,2.677-1.375,7.825,0.31,12.375c0.935,2.521,1.088,4.342,0.456,5.417c-1.328,2.26-6.526,2.076-8.668-0.307
	c-2.042-2.271-7.348-2.644-7.348-0.516c0,0.776-0.876,1.857-1.945,2.402c-2.155,1.099-6.729,9.907-7.697,14.821
	c-0.865,4.391,1.796,5.51,12.216,5.136C136.167,100.588,138.995,99.961,144.469,97.52z M114.164,83.188
	c0.351-0.335-0.483-2.432-1.854-4.659c-3.288-5.344-3.296-10.425-0.022-13.544c4.063-3.869,8.416-0.86,11.196,7.737
	c0.602,1.858,0.66,1.862,1.685,0.125c0.583-0.99,0.824-3.798,0.535-6.24c-0.433-3.657-1.211-4.996-4.415-7.596
	c-2.139-1.736-4.734-3.045-5.768-2.908s-3.308,2.136-5.055,4.442c-2.785,3.678-3.163,4.923-3.067,10.111
	C107.559,79.426,111.143,86.064,114.164,83.188z M252.235,241.964c-1.257-1.527-1.222-1.562,0.382-0.364
	c1.685,1.259,2.22,2.049,1.388,2.049C253.795,243.648,252.999,242.89,252.235,241.964z"/>
<path id="path1473" fill="#A89162" d="M80.5,294.574c-7.724-2.675-15.542-4.981-30.834-9.1c-20.191-5.437-29.492-8.412-30.582-9.786
	c-1.881-2.37-1.556-5.574,1.388-13.671c2.446-6.73,2.592-8.002,1.876-16.442c-1.026-12.1-0.739-16.432,1.225-18.499
	c2.082-2.191,7.535-3.628,13.962-3.679c6.488-0.051,8.864-1.371,12.623-7.017c2.976-4.47,3.013-4.669,1.41-7.619
	c-2.86-5.27-1.293-12.957,4.64-22.762c5.909-9.765,9.174-17.148,12.688-28.696c3.238-10.644,5.139-13.802,16.085-26.724
	c9.508-11.225,14.983-18.861,16.226-22.628c0.422-1.278,0.174-14.429-0.552-29.223c-1.507-30.721-0.958-37.401,3.883-47.254
	c9.565-19.471,34.715-25.937,58.512-15.044c10.235,4.686,16.32,10.324,21.047,19.504c4.499,8.738,5.395,13.404,6.675,34.77
	c0.841,14.031,1.489,18.485,3.482,23.92c3.616,9.858,15.222,28.763,22.729,37.022c10.198,11.222,12.383,14.531,17.069,25.859
	c5.883,14.222,8.231,23.229,8.904,34.142c0.668,10.852-1.603,23.328-5.361,29.455c-1.328,2.165-2.415,4.904-2.415,6.087
	c0,2.88-11.673,15.258-16.046,17.015c-4.77,1.916-7.927,1.704-13.878-0.936c-9.782-4.339-11.998-10.702-7.403-21.263
	c1.767-4.06,2.098-5.837,1.308-7.029c-0.757-1.143-0.649-2.835,0.379-5.962c1.09-3.314,1.312-7.963,0.922-19.293
	c-0.708-20.571-4.021-31.204-13.348-42.844c-2.692-3.359-4.246-6.748-5.635-12.289c-1.868-7.449-3.142-10.413-9.617-22.386
	c-1.719-3.178-3.633-6.97-4.255-8.426c-0.935-2.193-1.748-2.648-4.737-2.648c-2.451,0-4.322,0.712-5.835,2.223
	c-3.938,3.931-14.229,10.121-18.669,11.229c-8.01,1.998-14.928-0.343-22.106-7.479c-5.139-5.109-6.396-4.632-6.423,2.437
	c-0.012,3.035-1.03,5.654-3.991,10.262c-6.641,10.334-8.219,13.899-9.693,21.888c-0.778,4.217-2.287,8.841-3.353,10.276
	c-3.521,4.742-12.022,21.754-14.298,28.609c-1.499,4.519-2.419,10.324-2.788,17.608c-0.659,12.999-1.991,11.064,18.072,26.262
	c14.974,11.342,17.562,13.902,18.6,18.402c0.872,3.783-1.835,7.449-6.664,9.024c-4.309,1.406-4.162,3.173,0.737,8.886
	c4.277,4.985,7.033,6.421,15.32,7.974c18.516,3.47,39.396-2.919,55.61-17.015c8.301-7.216,9.265-9.69,9.265-23.771
	c0-5.601,0.407-10.423,0.905-10.716c1.28-0.754,2.127,1.833,2.133,6.517c0.002,2.208,1.139,7.047,2.526,10.755
	c2.397,6.406,2.49,7.434,1.877,20.744c-0.591,12.846-0.472,14.377,1.448,18.512c2.38,5.123,7.061,8.401,12.005,8.407
	c3.615,0.004,10.26-2.497,16.325-6.144c2.248-1.352,6.28-2.958,8.961-3.57c2.681-0.611,6.434-1.957,8.341-2.989
	c1.907-1.033,5.616-2.655,8.243-3.605c2.626-0.951,7.52-3.74,10.873-6.198c3.354-2.458,6.365-4.059,6.691-3.556
	c1.218,1.877-5.655,7.519-14.46,11.869c-13.344,6.594-19.042,10.414-26.946,18.067c-8.921,8.637-13.105,10.76-22.241,11.284
	c-6.257,0.358-7.722,0.09-12.638-2.319c-3.896-1.908-6.161-3.793-7.567-6.295c-1.825-3.246-2.512-3.639-7.582-4.333
	c-3.066-0.42-17.253-0.763-31.526-0.763c-25.521,0-25.991,0.035-28.372,2.166c-1.332,1.192-2.944,2.167-3.585,2.167
	c-0.64,0-2.713,1.297-4.608,2.881c-4.328,3.62-11.368,6.704-15.328,6.715C90.458,297.546,85.226,296.21,80.5,294.574z
	 M91.126,281.744c4.649-1.851,7.563-6.577,7.567-12.279c0.003-2.484,0.459-4.785,1.015-5.112c0.557-0.327,1.012-1.395,1.012-2.372
	c0-1.744-5.233-11.221-8.977-16.256c-1.046-1.406-4.306-6.457-7.244-11.224c-6.608-10.719-9.196-14.162-15.018-19.981
	c-7.255-7.253-12.875-6.112-14.63,2.97c-1.479,7.655-9.518,12.502-18.791,11.33c-3.889-0.491-5.296-0.252-7.212,1.226
	c-2.329,1.796-2.354,1.981-1.144,8.7c1.742,9.677,1.585,19.763-0.363,23.352c-3.284,6.05-0.098,9.962,8.897,10.924
	c9.139,0.978,28.206,4.763,38.195,7.582C84.55,283.457,86.487,283.59,91.126,281.744z M144.469,97.52
	c3.717-1.656,8.782-4.339,11.257-5.961c4.925-3.227,6.601-3.568,8.568-1.744c1.05,0.973,1.233,0.744,0.96-1.189
	c-0.289-2.049-1.569-2.813-8.932-5.328c-4.726-1.614-9.067-3.217-9.647-3.56c-0.652-0.387-0.833-2.837-0.473-6.424
	c0.43-4.286,1.213-6.439,3-8.252c7.462-7.565,17.58,5.395,10.339,13.243c-2.449,2.655-2.29,4.472,0.45,5.126
	c3.376,0.808,5.962-1.62,7.36-6.911c1.591-6.016,0.414-11.213-3.86-17.054c-3.164-4.322-4.215-5.083-7.38-5.336
	c-4.03-0.321-10.222,2.204-13.27,5.414c-2.89,3.044-3.254,8.767-0.872,13.716c1.447,3.008,1.763,4.737,1.085,5.944
	c-1.318,2.347-6.512,2.213-8.702-0.224c-2.042-2.271-7.348-2.644-7.348-0.516c0,0.776-0.876,1.857-1.945,2.402
	c-2.155,1.099-6.729,9.907-7.697,14.821c-0.865,4.391,1.796,5.51,12.216,5.136C136.167,100.588,138.995,99.961,144.469,97.52z
	 M114.225,83.052c0.266-0.409-0.612-2.901-1.953-5.537c-1.34-2.636-2.44-5.53-2.445-6.433c-0.017-3.033,2.341-6.587,4.755-7.164
	c3.274-0.782,6.082,1.847,7.734,7.244l1.336,4.364l1.771-2.574c4.774-6.941-5.131-20.875-12.257-17.242
	c-1.043,0.531-2.963,3.001-4.267,5.486c-1.998,3.812-2.29,5.523-1.862,10.912c0.592,7.453,2.369,11.688,4.905,11.688
	C112.932,83.797,113.96,83.461,114.225,83.052z M252.235,241.964c-1.257-1.527-1.222-1.562,0.382-0.364
	c1.685,1.259,2.22,2.049,1.388,2.049C253.795,243.648,252.999,242.89,252.235,241.964z"/>
<path id="path1471" fill="#DAA609" d="M88.588,296.907c-0.834-0.284-5.899-2.176-11.256-4.205
	c-5.357-2.028-15.82-5.187-23.253-7.018c-20.773-5.119-29.43-7.388-32.48-8.511c-3.505-1.29-4.492-4.717-2.845-9.874
	c4.481-14.031,4.538-14.416,3.514-23.752c-1.763-16.063,0.078-19.013,12.364-19.814c9.675-0.632,11.82-1.645,15.53-7.329
	c3.171-4.858,3.195-4.988,1.486-7.745c-3.02-4.868-1.431-12.761,4.559-22.659c5.909-9.765,9.174-17.148,12.688-28.696
	c3.238-10.644,5.139-13.802,16.085-26.724c9.508-11.225,14.983-18.861,16.226-22.628c0.422-1.278,0.174-14.429-0.552-29.223
	c-1.507-30.721-0.958-37.401,3.883-47.254c9.565-19.471,34.715-25.937,58.512-15.044c10.235,4.686,16.32,10.324,21.047,19.504
	c4.499,8.738,5.395,13.404,6.675,34.77c0.841,14.031,1.489,18.485,3.482,23.92c3.616,9.858,15.222,28.763,22.729,37.022
	c10.198,11.222,12.383,14.531,17.069,25.859c5.69,13.758,8.174,23.063,8.912,33.393c0.603,8.438-1.123,22.434-2.894,23.476
	c-0.483,0.285-0.621,0.915-0.307,1.4c0.315,0.486-0.587,2.77-2.005,5.074c-1.419,2.305-2.579,5.158-2.579,6.341
	c0,2.88-11.673,15.258-16.046,17.015c-4.77,1.916-7.927,1.704-13.878-0.936c-9.782-4.339-11.998-10.702-7.403-21.263
	c1.767-4.06,2.098-5.837,1.308-7.029c-0.757-1.143-0.649-2.835,0.379-5.962c1.09-3.314,1.312-7.963,0.922-19.293
	c-0.708-20.571-4.021-31.204-13.348-42.844c-2.692-3.359-4.246-6.748-5.635-12.289c-1.877-7.482-3.009-10.112-9.849-22.867
	c-1.846-3.442-4.059-7.649-4.917-9.348l-1.562-3.089l-3.655,1.43c-2.01,0.786-6.741,3.424-10.514,5.861
	c-14.828,9.582-23.71,9.497-33.602-0.321c-4.481-4.448-4.74-4.565-6.12-2.775c-0.792,1.028-1.44,3.729-1.44,6.002
	c0,3.118-0.976,5.65-3.976,10.318c-6.641,10.334-8.219,13.899-9.693,21.888c-0.778,4.217-2.287,8.841-3.353,10.276
	c-3.521,4.742-12.022,21.754-14.298,28.609c-1.499,4.519-2.419,10.324-2.788,17.608c-0.659,12.999-1.991,11.064,18.072,26.262
	c14.974,11.342,17.562,13.902,18.6,18.402c0.896,3.886-1.843,7.426-7.083,9.154c-2.157,0.711-4.138,1.498-4.399,1.747
	c-1.08,1.029,5.023,8.11,9.337,10.832c8.512,5.37,24.424,6.435,39.507,2.643c8.274-2.08,19.226-8.307,28.782-16.363l7.98-6.729
	l0.072-13.184c0.04-7.251,0.479-13.424,0.978-13.717c1.28-0.754,2.127,1.833,2.133,6.517c0.002,2.208,1.139,7.047,2.526,10.755
	c2.397,6.406,2.49,7.434,1.877,20.744c-0.591,12.846-0.472,14.377,1.448,18.512c2.38,5.123,7.061,8.401,12.005,8.407
	c3.615,0.004,10.26-2.497,16.325-6.144c2.248-1.352,6.28-2.958,8.961-3.57c2.681-0.611,6.434-1.957,8.341-2.989
	c1.907-1.033,5.616-2.655,8.243-3.605c2.626-0.951,7.52-3.74,10.873-6.198c3.354-2.458,6.365-4.059,6.691-3.556
	c1.233,1.899-5.704,7.543-14.791,12.031c-13.492,6.664-18.388,9.882-28.469,18.707c-11.862,10.387-18.475,12.471-29.556,9.315
	c-5.367-1.528-10.13-5.114-11.564-8.71c-1.279-3.204-7.616-3.833-38.581-3.833c-25.521,0-25.991,0.035-28.372,2.166
	c-1.332,1.192-2.944,2.167-3.585,2.167c-0.64,0-2.765,1.339-4.722,2.976C101.822,295.537,92.916,298.38,88.588,296.907z
	 M91.126,281.744c4.649-1.851,7.563-6.577,7.567-12.279c0.003-2.484,0.459-4.785,1.015-5.112c0.557-0.327,1.012-1.395,1.012-2.372
	c0-1.744-5.233-11.221-8.977-16.256c-1.046-1.406-4.306-6.457-7.244-11.224c-6.608-10.719-9.196-14.162-15.018-19.981
	c-7.255-7.253-12.875-6.112-14.63,2.97c-1.479,7.655-9.518,12.502-18.791,11.33c-3.889-0.491-5.296-0.252-7.212,1.226
	c-2.329,1.796-2.354,1.981-1.144,8.7c1.742,9.677,1.585,19.763-0.363,23.352c-3.284,6.05-0.098,9.962,8.897,10.924
	c9.139,0.978,28.206,4.763,38.195,7.582C84.55,283.457,86.487,283.59,91.126,281.744z M144.469,97.52
	c3.717-1.656,8.782-4.339,11.257-5.961c4.925-3.227,6.601-3.568,8.568-1.744c1.05,0.973,1.233,0.744,0.96-1.189
	c-0.291-2.059-1.587-2.818-9.295-5.449c-8.231-2.811-12.827-5.158-10.097-5.158c0.662,0,0.889-1.745,0.599-4.618
	c-0.4-3.97-0.083-5.051,2.261-7.703c4.385-4.964,10.354-3.473,12.651,3.161c1.393,4.018,0.641,6.837-2.739,10.277
	c-2.487,2.533-2.492,2.574-0.458,3.611c5.779,2.946,9.718-1.856,9.635-11.748c-0.041-4.869-0.549-6.271-4.008-11.074
	c-3.463-4.808-4.427-5.536-7.671-5.794c-4.134-0.328-10.25,2.212-13.457,5.59c-2.537,2.672-2.745,10.688-0.391,15.047
	c1.085,2.009,1.319,3.528,0.704,4.574c-1.297,2.208-6.523,1.99-8.636-0.36c-2.042-2.271-7.348-2.644-7.348-0.516
	c0,0.776-0.876,1.857-1.945,2.402c-2.155,1.099-6.729,9.907-7.697,14.821c-0.865,4.391,1.796,5.51,12.216,5.136
	C136.167,100.588,138.995,99.961,144.469,97.52z M114.833,83.36c0.978-1.121,0.797-1.831-0.911-3.576
	c-5.257-5.375-4.825-14.555,0.747-15.887c3.365-0.805,7.021,3.087,7.918,8.431c0.772,4.598,2.532,4.462,3.712-0.286
	c1.252-5.045-0.681-10.626-4.904-14.157c-5.598-4.683-8.675-3.812-12.645,3.577C103.911,70.468,109.266,89.749,114.833,83.36z
	 M252.235,241.964c-1.257-1.527-1.222-1.562,0.382-0.364c1.685,1.259,2.22,2.049,1.388,2.049
	C253.795,243.648,252.999,242.89,252.235,241.964z"/>
<path id="path1469" fill="#CD9308" d="M88.588,296.907c-0.834-0.284-5.899-2.176-11.256-4.205
	c-5.357-2.028-15.82-5.187-23.253-7.018c-20.773-5.119-29.43-7.388-32.48-8.511c-3.505-1.29-4.492-4.717-2.845-9.874
	c4.481-14.031,4.538-14.416,3.514-23.752c-1.763-16.063,0.078-19.013,12.364-19.814c9.587-0.626,11.759-1.635,15.563-7.228
	c3.288-4.833,3.296-4.874,1.51-7.755c-3.08-4.966-1.534-12.775,4.502-22.751c5.909-9.765,9.174-17.148,12.688-28.696
	c3.238-10.644,5.139-13.802,16.085-26.724c9.508-11.225,14.983-18.861,16.226-22.628c0.422-1.278,0.174-14.429-0.552-29.223
	c-1.507-30.721-0.958-37.401,3.883-47.254c9.565-19.471,34.715-25.937,58.512-15.044c10.235,4.686,16.32,10.324,21.047,19.504
	c4.499,8.738,5.395,13.404,6.675,34.77c0.841,14.031,1.489,18.485,3.482,23.92c3.616,9.858,15.222,28.763,22.729,37.022
	c10.198,11.222,12.383,14.531,17.069,25.859c5.787,13.992,8.203,23.146,8.912,33.771c0.532,7.996-0.849,20.238-2.595,23.001
	c-0.335,0.529-0.633,1.18-0.662,1.444c-0.03,0.265-2.009,3.835-4.398,7.935c-7.646,13.117-16.514,18.339-26.949,15.868
	c-6.517-1.543-9.574-5.578-9.574-12.637c0-2.705,0.445-6.399,0.99-8.208c0.681-2.262,0.648-3.683-0.105-4.548
	c-0.791-0.907-0.746-2.648,0.161-6.253c0.865-3.437,1.077-9.375,0.679-19.039c-0.813-19.712-4.289-30.597-13.396-41.962
	c-2.692-3.359-4.246-6.748-5.635-12.289c-1.877-7.482-3.009-10.112-9.849-22.867c-1.846-3.442-4.059-7.649-4.917-9.348l-1.562-3.089
	l-3.655,1.43c-2.01,0.786-6.741,3.424-10.514,5.861c-14.828,9.582-23.71,9.497-33.602-0.321c-4.481-4.448-4.74-4.565-6.12-2.775
	c-0.792,1.028-1.44,3.729-1.44,6.002c0,3.118-0.976,5.65-3.976,10.318c-6.641,10.334-8.219,13.899-9.693,21.888
	c-0.778,4.217-2.287,8.841-3.353,10.276c-3.521,4.742-12.022,21.754-14.298,28.609c-1.499,4.519-2.419,10.324-2.788,17.608
	c-0.659,12.999-1.991,11.064,18.072,26.262c14.974,11.342,17.562,13.902,18.6,18.402c0.896,3.886-1.843,7.426-7.083,9.154
	c-2.157,0.711-4.138,1.498-4.399,1.747c-1.08,1.029,5.023,8.11,9.337,10.832c8.512,5.37,24.424,6.435,39.507,2.643
	c8.274-2.08,19.226-8.307,28.782-16.363l7.98-6.729l0.072-5.055c0.04-2.781,0.473-5.056,0.961-5.056c2.11,0,3.078,6.378,3.36,22.147
	c0.295,16.549,0.353,16.937,3.178,21.514c5.596,9.068,12.684,9.419,29.913,1.479c23.888-11.008,30.381-13.697,31.196-12.92
	c0.27,0.257-0.796,0.933-2.368,1.502c-6.599,2.39-19.789,11.01-28.601,18.69c-12.428,10.833-18.855,12.912-30.054,9.724
	c-5.367-1.528-10.13-5.114-11.564-8.71c-1.279-3.204-7.616-3.833-38.581-3.833c-25.521,0-25.991,0.035-28.372,2.166
	c-1.332,1.192-2.944,2.167-3.585,2.167c-0.64,0-2.765,1.339-4.722,2.976C101.822,295.537,92.916,298.38,88.588,296.907z
	 M94.25,282.674c1.404-0.876,3.889-3.6,5.521-6.053c2.381-3.576,2.97-5.537,2.97-9.891c0-4.854-0.555-6.291-5.227-13.534
	c-2.875-4.456-8.147-12.647-11.716-18.201c-8.269-12.868-12.38-18.182-17.433-22.53c-6.419-5.523-12.743-4.27-15.226,3.021
	c-2.871,8.434-7.621,11.477-16.396,10.503c-6.273-0.695-9.739,0.651-11.7,4.546c-1.167,2.319-1.117,4.272,0.345,13.315
	c1.764,10.904,1.504,15.412-1.167,20.333c-2.035,3.747-0.981,7.025,2.867,8.921c1.747,0.86,8.678,2.354,15.403,3.319
	c14.934,2.145,19.619,3.053,31.941,6.189C84.751,285.238,90.114,285.256,94.25,282.674z M130.543,106.907
	c0.355-0.548-0.515-0.963-2.021-0.963c-1.508,0-2.378,0.415-2.022,0.963C127.304,108.149,129.737,108.149,130.543,106.907z
	 M140.455,99.74c3.783-1.272,9.876-4.103,13.538-6.29c6.158-3.678,9.406-4.374,9.406-2.015c0,0.526-1.934,2.713-4.297,4.857
	c-2.607,2.366-3.502,3.636-2.274,3.229c4.199-1.39,7.659-4.673,8.822-8.369c1.101-3.499,1.021-3.919-0.985-5.188
	c-2.132-1.348-2.139-1.426-0.307-3.299c2.563-2.621,4.259-9.597,3.472-14.285c-0.357-2.13-2.311-6.142-4.339-8.913
	c-3.164-4.322-4.215-5.083-7.38-5.336c-4.009-0.32-10.219,2.2-13.228,5.369c-2.649,2.791-3.224,8.058-1.427,13.081
	c1.24,3.469,1.302,4.655,0.306,5.953c-1.552,2.021-5.204,1.443-5.014-0.793c0.115-1.351-0.758-1.648-4.834-1.648
	c-3.542,0-5.146,0.426-5.57,1.48c-0.328,0.813-1.875,2.109-3.438,2.88c-3.165,1.559-9.47,12.565-8.877,15.497
	c0.193,0.958,1.895,2.731,3.78,3.942C122.507,102.907,131.207,102.848,140.455,99.74z M151.326,81.089
	c-4.488-1.639-4.491-1.644-4.873-7.016c-0.334-4.704-0.046-5.756,2.307-8.419c4.199-4.754,9.571-3.688,12.255,2.431
	c1.831,4.173,1.063,8.009-2.186,10.916c-1.345,1.202-2.204,2.557-1.91,3.01C157.67,83.167,156.483,82.971,151.326,81.089z
	 M114.833,83.36c0.978-1.121,0.797-1.831-0.911-3.576c-5.257-5.375-4.825-14.555,0.747-15.887c3.365-0.805,7.021,3.087,7.918,8.431
	c0.772,4.598,2.532,4.462,3.712-0.286c1.252-5.045-0.681-10.626-4.904-14.157c-5.598-4.683-8.675-3.812-12.645,3.577
	C103.911,70.468,109.266,89.749,114.833,83.36z M259.441,262.908c1.39-1.036,2.982-1.883,3.538-1.883
	c0.557,0-0.126,0.847-1.517,1.883c-1.39,1.036-2.982,1.883-3.538,1.883S258.051,263.944,259.441,262.908z"/>
<path id="path1467" fill="#6E6E6E" d="M88.588,296.907c-0.834-0.284-5.858-2.161-11.166-4.17c-5.308-2.01-16.908-5.471-25.78-7.691
	c-8.871-2.221-19.275-4.835-23.12-5.811c-3.845-0.975-7.827-2.568-8.849-3.542c-1.723-1.642-1.753-2.151-0.414-7.036
	c1.946-7.098,3.548-10.95,4.268-10.265c0.327,0.312-0.439,2.944-1.704,5.85c-2.172,4.992-2.206,5.416-0.625,7.714
	c1.896,2.756,4.823,3.646,19.37,5.886c17.867,2.751,26.125,4.285,33.361,6.197c10.718,2.831,17.497,2.604,22.343-0.747
	c5.53-3.825,8.925-10.616,8.116-16.237c-0.732-5.091-3.348-10.497-8.295-17.146c-1.97-2.648-6.772-9.932-10.672-16.186
	c-4.121-6.61-9.86-14.169-13.71-18.056c-5.846-5.902-7.053-6.685-10.316-6.685c-2.033,0-4.628,0.621-5.766,1.38
	c-1.904,1.271-2.214,1.146-3.895-1.563c-3.111-5.018-1.588-12.783,4.473-22.799c5.909-9.765,9.174-17.148,12.688-28.696
	c3.238-10.644,5.139-13.802,16.085-26.724c9.508-11.225,14.983-18.861,16.226-22.628c0.422-1.278,0.174-14.429-0.552-29.223
	c-1.507-30.721-0.958-37.401,3.883-47.254c9.565-19.471,34.715-25.937,58.512-15.044c10.235,4.686,16.32,10.324,21.047,19.504
	c4.499,8.738,5.395,13.404,6.675,34.77c0.841,14.031,1.489,18.485,3.482,23.92c3.616,9.858,15.222,28.763,22.729,37.022
	c10.198,11.222,12.383,14.531,17.069,25.859c5.787,13.992,8.203,23.146,8.912,33.771c0.931,13.965-1.448,22.747-9.1,33.594
	c-6.789,9.625-14.412,13.062-24.53,11.061c-7.859-1.554-9.823-4.557-9.251-14.146c0.229-3.814-0.025-7.354-0.563-7.866
	c-0.628-0.599-0.522-2.733,0.296-5.982c0.882-3.501,1.095-9.362,0.693-19.097c-0.813-19.712-4.289-30.597-13.396-41.962
	c-2.692-3.359-4.246-6.748-5.635-12.289c-1.877-7.482-3.009-10.112-9.849-22.867c-1.846-3.442-4.051-7.635-4.899-9.315
	c-1.088-2.155-2.03-2.889-3.194-2.485c-1.364,0.472-1.317,0.21,0.266-1.508c2.589-2.81,3.411-10.877,1.28-12.562
	c-1.404-1.11-1.339-1.658,0.635-5.259c1.566-2.859,2.181-5.629,2.125-9.595c-0.066-4.845-0.596-6.296-4.037-11.074
	c-3.463-4.808-4.427-5.536-7.671-5.794c-4.132-0.328-10.25,2.212-13.452,5.585c-2.142,2.255-2.646,8.36-1.153,13.97
	c0.873,3.281-1.251,7.043-3.297,5.839c-0.902-0.531-0.923-1.048-0.079-2.016c0.906-1.041,0.41-1.432-2.472-1.946
	c-5.302-0.947-8.521,0.171-14.504,5.041c-5.384,4.38-9.335,10.163-9.335,13.661c0,2.49,5.17,6.532,10.186,7.964
	c7.282,2.078,22.013-1.896,34.209-9.231c2.354-1.415,4.815-2.401,5.47-2.19s-0.175,1.066-1.843,1.902
	c-1.668,0.835-5.691,3.496-8.94,5.912c-6.886,5.122-10.769,6.348-20.125,6.355c-6.816,0.005-7.896,0.525-5.611,2.701
	c2.564,2.442,14.342,0.843,25.335-3.441c5.749-2.241,5.437-0.961-0.756,3.103c-13.36,8.765-22.782,8.449-32.385-1.083
	c-4.481-4.448-4.74-4.565-6.12-2.775c-0.792,1.028-1.44,3.729-1.44,6.002c0,3.118-0.976,5.65-3.976,10.318
	c-6.641,10.334-8.219,13.899-9.693,21.888c-0.778,4.217-2.287,8.841-3.353,10.276c-3.521,4.742-12.022,21.754-14.298,28.609
	c-1.499,4.519-2.419,10.324-2.788,17.608c-0.659,12.999-1.991,11.064,18.072,26.262c14.974,11.342,17.562,13.902,18.6,18.402
	c0.896,3.886-1.843,7.426-7.083,9.154c-2.157,0.711-4.138,1.498-4.399,1.747c-1.08,1.029,5.023,8.11,9.337,10.832
	c8.512,5.37,24.424,6.435,39.507,2.643c8.274-2.08,19.226-8.307,28.782-16.363c6.28-5.296,7.996-7.306,8.053-9.434
	c0.04-1.488,0.469-2.472,0.954-2.187c0.484,0.285,1.212,8.323,1.617,17.862c0.811,19.089,2.034,23.317,7.938,27.417
	c4.134,2.871,13.524,2.573,20.902-0.663c3.059-1.341,8.29-3.595,11.627-5.008l6.065-2.57l-9.099,8.206
	c-9.912,8.938-14.821,11.791-21.884,12.713c-8.807,1.149-19.661-3.64-22.101-9.751c-1.279-3.204-7.616-3.833-38.581-3.833
	c-25.521,0-25.991,0.035-28.372,2.166c-1.332,1.192-2.944,2.167-3.585,2.167c-0.64,0-2.765,1.339-4.722,2.976
	C101.822,295.537,92.916,298.38,88.588,296.907z M114.833,83.36c0.978-1.121,0.797-1.831-0.911-3.576
	c-5.257-5.375-4.825-14.555,0.747-15.887c3.365-0.805,7.021,3.087,7.918,8.431c0.772,4.598,2.532,4.462,3.712-0.286
	c1.252-5.045-0.681-10.626-4.904-14.157c-5.598-4.683-8.675-3.812-12.645,3.577C103.911,70.468,109.266,89.749,114.833,83.36z
	 M236.93,275.307c0.686-0.658,1.501-0.954,1.813-0.658c0.312,0.297-0.25,0.835-1.247,1.197
	C236.055,276.369,235.939,276.258,236.93,275.307z M150.308,80.496c-4.837-2.551-5.6-10.257-1.479-14.922
	c4.276-4.841,10.271-3.271,12.543,3.284c1.401,4.044,0.64,6.839-2.826,10.364C155.655,82.165,153.967,82.426,150.308,80.496z"/>
<path id="path1465" fill="#B88708" d="M83.533,294.765c-3.059-0.959-7.87-2.634-10.694-3.721c-2.823-1.088-12.377-3.791-21.23-6.007
	c-8.853-2.217-19.242-4.827-23.087-5.803c-3.845-0.975-7.827-2.568-8.849-3.542c-1.723-1.642-1.753-2.151-0.414-7.036
	c1.946-7.098,3.548-10.95,4.268-10.265c0.327,0.312-0.439,2.944-1.704,5.85c-2.172,4.992-2.206,5.416-0.625,7.714
	c1.896,2.756,4.823,3.646,19.37,5.886c17.867,2.751,26.125,4.285,33.361,6.197c10.718,2.831,17.497,2.604,22.343-0.747
	c5.53-3.825,8.925-10.616,8.116-16.237c-0.732-5.091-3.348-10.497-8.295-17.146c-1.97-2.648-6.772-9.932-10.672-16.186
	c-4.121-6.61-9.86-14.169-13.71-18.056c-5.865-5.923-7.045-6.685-10.349-6.685c-2.051,0-4.605,0.61-5.677,1.357
	c-1.799,1.252-2.096,1.054-3.838-2.567c-1.631-3.388-1.738-4.638-0.786-9.153c0.606-2.876,2.717-7.76,4.69-10.854
	c5.142-8.063,8.854-16.251,12.916-28.489c1.955-5.888,4.24-11.955,5.079-13.481c0.839-1.527,6.511-8.777,12.604-16.113
	c6.093-7.335,12.046-15.183,13.229-17.438c2.549-4.862,2.594-6.56,0.977-37.197c-1.415-26.815-0.72-33.236,4.756-43.92
	c6.126-11.953,16.874-18.589,31.337-19.347c10.288-0.539,17.764,0.94,26.999,5.341c8.794,4.19,15.29,10.193,19.771,18.269
	c4.496,8.102,6.038,15.834,7.297,36.592c0.9,14.854,1.459,18.557,3.63,24.074c4.229,10.751,15.434,28.563,23.361,37.141
	c9.214,9.969,11.331,13.258,16.442,25.549c8.431,20.271,10.798,38.238,6.843,51.948c-1.863,6.46-7.064,15.069-12.225,20.236
	c-6.999,7.007-22.677,7.495-27.083,0.842c-1.665-2.515-1.946-4.262-1.604-9.984c0.229-3.814,0.038-7.295-0.422-7.732
	s-0.289-2.517,0.378-4.619c1.735-5.467,1.271-28.091-0.769-37.482c-2.023-9.318-6.262-18.482-11.587-25.059
	c-3.012-3.718-4.389-6.668-5.649-12.1c-1.072-4.622-4.259-12.16-8.94-21.146c-6.018-11.55-7.614-13.904-9.237-13.626
	c-1.928,0.331-1.929,0.301-0.051-1.675c2.601-2.737,3.412-10.807,1.258-12.51c-1.426-1.128-1.36-1.546,0.65-4.14
	c1.824-2.354,2.233-4.156,2.217-9.782c-0.018-5.833-0.463-7.605-2.886-11.487c-3.495-5.598-6.105-7.447-10.512-7.447
	c-4.346,0-8.393,2.032-11.856,5.954c-2.524,2.857-2.723,3.646-2.246,8.941c0.287,3.194,0.807,6.471,1.154,7.28
	c0.825,1.926-1.767,5.302-3.354,4.367c-0.902-0.531-0.923-1.048-0.079-2.016c0.906-1.041,0.41-1.432-2.472-1.946
	c-5.302-0.947-8.521,0.171-14.504,5.041c-5.384,4.38-9.335,10.163-9.335,13.661c0,2.49,5.17,6.532,10.186,7.964
	c7.282,2.078,22.013-1.896,34.209-9.231c2.354-1.415,4.815-2.401,5.47-2.19s-0.175,1.066-1.843,1.902
	c-1.668,0.835-5.691,3.496-8.94,5.912c-6.886,5.122-10.769,6.348-20.125,6.355c-6.816,0.005-7.896,0.525-5.611,2.701
	c2.564,2.442,14.342,0.843,25.335-3.441c5.749-2.241,5.437-0.961-0.756,3.103c-13.302,8.726-22.797,8.442-32.258-0.964
	c-5.78-5.746-7.688-5.355-7.688,1.572c0,4.241-0.729,6.103-5.082,12.966c-6.526,10.292-8.71,15.152-9.557,21.273
	c-0.463,3.349-3.213,9.724-8.514,19.741c-8.778,16.586-10.789,22.914-11.812,37.17l-0.707,9.855l3.935,3.507
	c2.164,1.928,9.621,7.8,16.571,13.048c6.951,5.248,13.661,10.923,14.912,12.61c4.358,5.881,2.064,12.279-4.927,13.742
	c-4.021,0.841-4.385,1.918-1.93,5.702c3.373,5.198,8.667,9.016,14.897,10.74c8.415,2.33,26.704,1.455,35.684-1.707
	c8.115-2.858,18.707-9.375,27.043-16.64c5.04-4.392,6.318-6.086,6.318-8.371c0-1.575,0.396-2.631,0.882-2.346
	c0.484,0.285,1.212,8.323,1.617,17.862c0.811,19.089,2.034,23.317,7.938,27.417c4.134,2.871,13.524,2.573,20.902-0.663
	c3.059-1.341,8.29-3.592,11.627-5.001l6.065-2.563l-8.593,7.761c-4.727,4.269-10.4,8.682-12.607,9.808
	c-10.307,5.252-27.86,2.094-30.917-5.563c-1.706-4.274-4.502-4.631-36.514-4.658c-29.732-0.025-30.017-0.007-32.416,2.141
	c-1.332,1.192-3.104,2.167-3.937,2.167s-2.803,1.28-4.377,2.846c-3.019,3.001-10.259,5.856-14.63,5.77
	C90.263,296.531,86.591,295.723,83.533,294.765z M187.413,106.76c1.617-1.54-0.079-4.281-3.774-6.102
	c-1.624-0.8-3.202-1.454-3.508-1.454c-1.143,0-0.483,2.509,1.455,5.537C183.681,108.015,185.451,108.629,187.413,106.76z
	 M114.788,83.412c0.919-1.055,0.616-2.129-1.393-4.949c-4.143-5.814-3.059-13.926,1.862-13.926c3.096,0,5.445,2.625,6.442,7.2
	c1.008,4.618,2.912,5.396,4.375,1.785c2.525-6.229-0.985-15.093-7.189-18.148c-3.984-1.963-7.585-0.297-10.327,4.778
	C103.256,69.968,108.721,90.375,114.788,83.412z M162.893,29.857c0-3.427-2.944-3.13-3.361,0.338
	c-0.266,2.21,0.025,2.668,1.517,2.395C162.245,32.37,162.893,31.409,162.893,29.857z M236.93,275.307
	c0.686-0.658,1.501-0.954,1.813-0.658c0.312,0.297-0.25,0.835-1.247,1.197C236.055,276.369,235.939,276.258,236.93,275.307z
	 M150.118,80.413c-4.85-2.509-4.327-13.343,0.797-16.541c2.937-1.833,6.13-0.698,5.616,1.996c-0.163,0.857,0.204,1.558,0.817,1.558
	s0.834-0.433,0.49-0.963c-0.344-0.529-0.159-0.963,0.41-0.963c1.6,0,3.129,3.385,3.126,6.918c-0.001,2.096-0.968,4.269-2.811,6.323
	C155.469,82.19,154.082,82.465,150.118,80.413z"/>
<path id="path1463" fill="#AB7506" d="M80.5,293.611c-4.727-1.637-12.46-4.044-17.187-5.349
	c-31.543-8.711-40.391-11.276-40.042-11.609c0.219-0.207,4.199,0.329,8.846,1.193c4.647,0.864,13.909,2.382,20.581,3.374
	c6.673,0.991,15.544,2.724,19.714,3.851c4.171,1.126,10.387,2.125,13.813,2.22c5.451,0.151,6.771-0.189,10.538-2.716
	c6.1-4.093,9.328-10.185,8.675-16.371c-0.279-2.647-0.857-5.682-1.283-6.74c-0.551-1.368,0.438-0.891,3.413,1.646
	c6.262,5.342,13.074,6.902,27.474,6.293c8.887-0.376,13.246-1.047,18.248-2.808c8.363-2.946,18.839-9.454,27.549-17.115l6.824-6.002
	l0.237,8.029c0.131,4.417,0.119,10.759-0.025,14.095c-0.331,7.583,0.97,12.282,4.786,17.301c2.547,3.349,3.792,4.081,8.527,5.018
	c6.676,1.32,11.062,0.407,21.155-4.401c3.784-1.803,7.182-3.278,7.551-3.278c1.613,0-11.786,11.898-15.411,13.686
	c-10.462,5.156-27.877,1.984-30.917-5.631c-1.706-4.274-4.502-4.631-36.514-4.658c-29.732-0.025-30.017-0.007-32.416,2.141
	c-1.332,1.192-3.104,2.167-3.937,2.167s-2.803,1.28-4.377,2.846c-2.992,2.975-10.184,5.83-14.63,5.808
	C90.263,296.592,85.226,295.247,80.5,293.611z M96.776,250.369c-1.583-2.082-6.462-9.503-10.841-16.492
	c-8.482-13.536-18.184-24.335-22.827-25.411c-1.7-0.394-3.952-0.054-5.958,0.899c-2.993,1.423-3.321,1.412-4.549-0.147
	c-3.579-4.543-2.342-12.842,3.214-21.553c5.078-7.963,8.805-16.193,12.853-28.389c1.955-5.888,4.24-11.955,5.079-13.481
	c0.839-1.527,6.511-8.777,12.604-16.113c6.093-7.335,12.046-15.183,13.229-17.438c2.549-4.862,2.594-6.56,0.977-37.197
	c-1.415-26.815-0.72-33.236,4.756-43.92c6.126-11.953,16.874-18.589,31.337-19.347c10.288-0.539,17.764,0.94,26.999,5.341
	c8.794,4.19,15.29,10.193,19.771,18.269c4.496,8.102,6.038,15.834,7.297,36.592c0.9,14.854,1.459,18.557,3.63,24.074
	c4.054,10.303,15.435,28.525,22.886,36.643c9.647,10.51,11.37,13.074,16.028,23.862c11.384,26.365,12.705,47.94,3.839,62.7
	c-6.653,11.077-12.344,14.928-22.193,15.016c-10.793,0.098-15.654-5.046-14.469-15.307c0.336-2.916,0.148-5.188-0.458-5.545
	c-0.69-0.406-0.65-1.79,0.121-4.209c1.672-5.238,1.162-28.085-0.832-37.263c-2.021-9.303-6.26-18.481-11.559-25.023
	c-2.955-3.647-4.39-6.706-5.677-12.1c-1.592-6.673-14.556-33.934-16.752-35.226c-0.494-0.291-0.494-1.227-0.001-2.144
	c1.813-3.368,2.163-9.383,0.666-11.419c-1.295-1.762-1.229-2.4,0.6-5.725c3.979-7.236,0.454-21.26-6.511-25.906
	c-7.191-4.798-19.888,2.487-19.888,11.411c0,2.214,0.437,5.477,0.971,7.251c0.916,3.04,0.843,3.192-1.264,2.654
	c-1.229-0.313-4.746-0.576-7.814-0.584l-5.58-0.013l0.02-6.019c0.016-4.779-0.465-6.666-2.335-9.163
	c-5.366-7.166-11.648-7.084-15.586,0.204c-3.781,6.998-2.45,20.211,2.475,24.582c1.903,1.688,1.931,1.953,0.411,4.02
	c-0.895,1.217-1.626,3.154-1.626,4.306c0,2.422,5.995,7.812,10.268,9.229c1.68,0.559,2.875,1.654,2.875,2.638
	c0,0.925,0.906,2.464,2.014,3.419c1.749,1.508,3.159,1.652,10.704,1.1c6.775-0.496,8.598-0.368,8.272,0.58
	c-0.558,1.624-6.431,3.501-11.166,3.568c-5.543,0.079-10.109-2.078-15.279-7.219c-5.78-5.746-7.688-5.355-7.688,1.572
	c0,4.241-0.729,6.103-5.082,12.966c-6.526,10.292-8.71,15.152-9.557,21.273c-0.463,3.349-3.213,9.724-8.514,19.741
	c-8.778,16.586-10.789,22.914-11.812,37.17l-0.707,9.855l3.935,3.507c2.164,1.928,9.621,7.8,16.571,13.048
	c13.871,10.474,17.187,14.101,17.187,18.799c0,3.05-3.11,7.039-5.498,7.052c-0.59,0.003-2.336,0.634-3.88,1.4
	C99.727,254.117,99.58,254.055,96.776,250.369z M187.413,106.76c1.617-1.54-0.079-4.281-3.774-6.102
	c-1.624-0.8-3.202-1.454-3.508-1.454c-1.143,0-0.483,2.509,1.455,5.537C183.681,108.015,185.451,108.629,187.413,106.76z
	 M162.893,29.857c0-3.427-2.944-3.13-3.361,0.338c-0.266,2.21,0.025,2.668,1.517,2.395C162.245,32.37,162.893,31.409,162.893,29.857
	z M134.081,103.708c0.278-0.266,2.78-1.332,5.561-2.37s5.851-2.206,6.824-2.596c3.251-1.3,1.83,1.179-1.517,2.646
	C141.71,102.807,133.098,104.645,134.081,103.708z M113.541,78.728c-4.249-6.242-3.288-14.191,1.717-14.191
	c3.026,0,5.488,2.652,6.316,6.804c0.363,1.819,1.143,3.89,1.731,4.602c0.805,0.973,0.455,1.759-1.405,3.157
	C116.726,82.989,116.432,82.975,113.541,78.728z M150.604,80.232c-2.515-1.193-3.284-2.253-3.629-4.994
	c-0.624-4.964,0.948-9.499,3.939-11.366c2.937-1.833,6.13-0.698,5.616,1.996c-0.163,0.857,0.204,1.558,0.817,1.558
	s0.834-0.433,0.49-0.963c-0.344-0.529-0.159-0.963,0.41-0.963c1.6,0,3.129,3.385,3.126,6.918c-0.001,2.096-0.968,4.269-2.811,6.323
	C155.397,82.27,155.038,82.338,150.604,80.232z"/>
<path id="path1461" fill="#966707" d="M87.071,295.912c-1.112-0.262-6.571-2.103-12.132-4.092
	c-5.56-1.988-13.378-4.363-17.372-5.277c-3.995-0.915-8.089-2.286-9.099-3.048c-1.631-1.23-1.157-1.313,4.229-0.746
	c3.337,0.352,11.289,1.881,17.673,3.399c6.385,1.518,13.681,2.76,16.215,2.76c5.916,0,12.586-3.227,16.603-8.032
	c2.626-3.143,3.091-4.52,3.091-9.148c0-2.997-0.367-6.708-0.816-8.246l-0.816-2.797l3.602,3.013
	c5.653,4.728,12.988,6.29,26.794,5.706c8.887-0.376,13.246-1.047,18.248-2.808c8.094-2.851,18.703-9.372,26.972-16.577
	c3.436-2.995,6.472-5.097,6.748-4.672c0.275,0.426,0.325,7.509,0.109,15.74c-0.391,14.912-0.382,14.987,2.58,20.952
	c3.484,7.017,6.668,8.795,15.751,8.795c4.375,0,7.146-0.689,11.78-2.934c3.333-1.613,6.251-2.751,6.485-2.528
	c0.928,0.885-5.209,6.627-9.107,8.521c-10.651,5.176-27.989,2.05-31.042-5.598c-1.706-4.274-4.502-4.631-36.514-4.658
	c-29.732-0.025-30.017-0.007-32.416,2.141c-1.332,1.192-3.104,2.167-3.937,2.167s-2.803,1.28-4.377,2.846
	C101.898,295.189,93.495,297.426,87.071,295.912z M94.291,246.262c-2.929-4.351-7.571-11.567-10.316-16.037
	s-8.179-11.295-12.075-15.167c-7.646-7.597-9.929-8.419-15.61-5.621c-2.836,1.397-2.907,1.366-4.611-2.056
	c-2.325-4.667-0.811-11.957,4.074-19.616c5.142-8.063,8.854-16.251,12.916-28.489c1.955-5.888,4.24-11.955,5.079-13.481
	c0.839-1.527,6.511-8.777,12.604-16.113c6.093-7.335,12.046-15.183,13.229-17.438c2.549-4.862,2.594-6.56,0.977-37.197
	c-1.415-26.815-0.72-33.236,4.756-43.92c6.126-11.953,16.874-18.589,31.337-19.347c10.288-0.539,17.764,0.94,26.999,5.341
	c8.794,4.19,15.29,10.193,19.771,18.269c4.496,8.102,6.038,15.834,7.297,36.592c0.9,14.854,1.459,18.557,3.63,24.074
	c4.229,10.751,15.434,28.563,23.361,37.141c9.214,9.969,11.331,13.258,16.442,25.549c6.269,15.072,8.519,24.841,8.469,36.757
	c-0.052,12.292-1.591,17.785-7.302,26.058c-6.371,9.231-9.63,11.016-20.114,11.016c-8.319,0-8.56-0.065-11.448-3.145
	c-2.61-2.783-2.949-3.856-2.949-9.332c0-3.403-0.418-6.433-0.928-6.733c-0.55-0.323-0.459-2.013,0.223-4.149
	c1.672-5.238,1.162-28.085-0.832-37.263c-2.021-9.303-6.26-18.481-11.559-25.023c-2.96-3.654-4.385-6.695-5.668-12.1
	c-1.083-4.563-4.455-12.507-9.165-21.593c-6.931-13.372-7.381-14.615-6.448-17.815c1.41-4.834,1.258-7.846-0.488-9.685
	c-1.337-1.407-1.273-2.002,0.58-5.372c4.004-7.285,0.505-21.291-6.485-25.954c-4.719-3.148-12.339-1.159-17.367,4.533
	c-2.596,2.938-2.738,3.564-2.201,9.664l0.573,6.522h-7.29h-7.29l0.02-6.019c0.016-4.779-0.465-6.666-2.335-9.163
	c-5.366-7.166-11.648-7.084-15.586,0.204c-3.553,6.575-2.505,19.921,1.892,24.109c1.301,1.238,1.199,1.877-0.833,5.239l-2.314,3.83
	l3.372,3.313c1.854,1.822,4.902,4.099,6.774,5.06c1.872,0.96,3.536,2.617,3.699,3.682c0.163,1.065,1.888,2.971,3.834,4.233
	c3.098,2.01,4.357,2.234,10.11,1.804c6.164-0.461,6.383-0.41,3.538,0.823c-7.005,3.038-12.973,1.421-20.392-5.524
	c-6.53-6.113-8.421-5.838-8.421,1.226c0,4.241-0.729,6.103-5.082,12.966c-6.526,10.292-8.71,15.152-9.557,21.273
	c-0.463,3.349-3.213,9.724-8.514,19.741c-8.778,16.586-10.789,22.914-11.812,37.17l-0.707,9.855l3.935,3.507
	c2.164,1.928,9.621,7.8,16.571,13.048c13.871,10.474,17.187,14.101,17.187,18.799c0,3.05-3.11,7.039-5.498,7.052
	c-0.59,0.003-2.345,0.638-3.899,1.41l-2.826,1.404L94.291,246.262z M187.413,106.76c1.617-1.54-0.079-4.281-3.774-6.102
	c-1.624-0.8-3.202-1.454-3.508-1.454c-1.143,0-0.483,2.509,1.455,5.537C183.681,108.015,185.451,108.629,187.413,106.76z
	 M162.893,29.857c0-3.427-2.944-3.13-3.361,0.338c-0.266,2.21,0.025,2.668,1.517,2.395C162.245,32.37,162.893,31.409,162.893,29.857
	z M114.654,80.185c-5.43-5.929-5.055-15.648,0.604-15.648c3.249,0,5.375,2.589,6.679,8.131c1.078,4.579,1.023,4.799-1.712,6.932
	C116.788,82.278,116.59,82.299,114.654,80.185z M152.658,80.777c-4.332-1.132-5.604-2.911-5.685-7.955
	c-0.076-4.797,2.092-8.758,5.327-9.736c2.503-0.757,5.137,1.035,4.359,2.966c-0.305,0.756-0.023,1.374,0.625,1.374
	s0.897-0.433,0.554-0.963c-0.344-0.529-0.159-0.963,0.41-0.963c1.6,0,3.129,3.385,3.126,6.918c-0.001,2.112-0.943,4.208-2.78,6.188
	C156.137,81.256,155.452,81.507,152.658,80.777z"/>
<path id="path1459" fill="#505051" d="M82.522,294.26c-3.614-1.267-11.121-3.852-16.682-5.745c-5.56-1.895-10.564-3.659-11.12-3.922
	c-1.862-0.88,5.971,0.569,15.855,2.935c11.283,2.7,19.508,2.98,24.868,0.848c4.37-1.739,8.894-5.586,10.926-9.29
	c1.634-2.979,1.868-9.167,0.479-12.646c-1.35-3.383-0.397-3.689,3.545-1.142c5.456,3.527,12.482,4.671,25.092,4.084
	c17.11-0.796,27.577-5.141,42.782-17.761c4.008-3.326,7.6-6.047,7.98-6.047s0.454,6.763,0.163,15.029
	c-0.738,20.913,1.298,27.534,9.419,30.63c5.907,2.251,13.632,1.907,19.59-0.872c2.757-1.286,5.161-2.197,5.342-2.024
	c0.867,0.826-7.207,6.361-10.578,7.253c-10.719,2.836-24.03-0.813-26.618-7.295c-1.706-4.274-4.502-4.631-36.514-4.658
	c-29.732-0.025-30.017-0.007-32.416,2.141c-1.332,1.192-3.104,2.167-3.937,2.167s-2.803,1.28-4.377,2.846
	c-3,2.983-10.207,5.838-14.63,5.796C90.263,296.573,86.136,295.526,82.522,294.26z M97.39,250.188
	c-1.366-1.743-5.331-7.72-8.812-13.28c-15.472-24.725-24.115-32.12-32.526-27.832c-3.402,1.734-5.402-1.057-5.246-7.321
	c0.134-5.357,0.645-6.579,8.296-19.834c2.324-4.026,6.287-13.29,8.808-20.585c2.521-7.296,5.208-14.401,5.973-15.791
	c0.764-1.39,6.375-8.527,12.468-15.863c6.093-7.335,12.046-15.183,13.229-17.438c2.549-4.862,2.594-6.56,0.977-37.197
	c-1.415-26.815-0.72-33.236,4.756-43.92c6.126-11.953,16.874-18.589,31.337-19.347c10.288-0.539,17.764,0.94,26.999,5.341
	c8.794,4.19,15.29,10.193,19.771,18.269c4.496,8.102,6.038,15.834,7.297,36.592c0.9,14.854,1.459,18.557,3.63,24.074
	c4.054,10.303,15.435,28.525,22.886,36.643c9.647,10.51,11.37,13.074,16.028,23.862c12.043,27.893,12.871,48.452,2.567,63.764
	c-5.494,8.164-8.331,10.366-15.253,11.842c-7.371,1.571-12.276,0.518-16.553-3.555c-3.388-3.228-3.479-3.506-2.885-8.912
	c0.377-3.434,0.2-5.972-0.46-6.601c-0.756-0.72-0.733-3.105,0.077-8.081c0.659-4.048,0.89-10.972,0.54-16.232
	c-1.266-19.036-5.387-31.733-13.585-41.855c-2.96-3.654-4.385-6.695-5.668-12.1c-1.082-4.557-4.451-12.498-9.137-21.539
	c-5.783-11.157-7.207-14.706-6.442-16.066c1.424-2.535,1.201-9.883-0.362-11.919c-1.14-1.484-1.052-2.278,0.58-5.24
	c3.845-6.979,0.188-21.096-6.646-25.654c-4.719-3.148-12.339-1.159-17.367,4.533c-2.578,2.917-2.736,3.592-2.22,9.457l0.556,6.315
	l-7.162-0.22l-7.163-0.22l-0.09-5.592c-0.102-6.33-2.722-10.857-7.703-13.311c-9.606-4.732-16.336,12.742-10.119,26.278
	c2.166,4.718,2.215,5.202,0.681,6.817c-2.98,3.137-2.055,6.381,3.041,10.652c2.58,2.163,4.264,3.934,3.74,3.934
	s-1.478-0.502-2.121-1.114c-2.201-2.097-4.289,0.9-4.289,6.154c0,4.063-0.783,6.039-5.082,12.817
	c-6.526,10.292-8.71,15.152-9.557,21.273c-0.463,3.349-3.213,9.724-8.514,19.741c-8.778,16.586-10.789,22.914-11.812,37.17
	l-0.707,9.855l3.935,3.507c2.164,1.928,9.621,7.8,16.571,13.048c6.951,5.248,13.661,10.923,14.912,12.61
	c3.969,5.354,2.569,11.137-3.189,13.187C100.25,253.485,99.945,253.447,97.39,250.188z M187.413,106.76
	c1.617-1.54-0.079-4.281-3.774-6.102c-1.624-0.8-3.202-1.454-3.508-1.454c-1.143,0-0.483,2.509,1.455,5.537
	C183.681,108.015,185.451,108.629,187.413,106.76z M162.893,29.857c0-3.427-2.944-3.13-3.361,0.338
	c-0.266,2.21,0.025,2.668,1.517,2.395C162.245,32.37,162.893,31.409,162.893,29.857z M112.84,77.778
	c-3.558-5.559-2.155-13.241,2.418-13.241c3.171,0,5.358,2.553,6.613,7.718c0.996,4.096,0.907,4.432-1.71,6.481
	C116.456,81.637,115.206,81.473,112.84,77.778z M150.123,79.453c-4.813-2.49-4.31-12.397,0.792-15.581
	c2.937-1.833,6.13-0.698,5.616,1.996c-0.163,0.857,0.204,1.558,0.817,1.558s0.834-0.433,0.49-0.963
	c-0.344-0.529-0.159-0.963,0.41-0.963c1.599,0,3.129,3.384,3.127,6.918c-0.001,3.71-3.799,8.51-6.688,8.451
	C153.641,80.847,151.587,80.211,150.123,79.453z"/>
<path id="path1457" fill="#885904" d="M84.798,295.124c-2.919-0.749-7.014-2.179-9.1-3.179c-2.085-1-7.658-2.998-12.385-4.441
	c-14.683-4.482-11.529-4.472,7.263,0.024c15.824,3.786,24.741,2.867,31.497-3.245c5.424-4.907,7.227-11.704,4.751-17.908
	c-0.623-1.56-0.623-2.642,0-3.008c0.534-0.315,0.972-0.123,0.972,0.428c0,2.795,13.994,6.817,23.719,6.817
	c7.211,0,19.642-2.326,25.401-4.753c6.572-2.77,17.187-9.765,23.433-15.444c2.927-2.662,5.608-4.84,5.958-4.84
	s0.396,6.763,0.105,15.029c-0.738,20.913,1.298,27.534,9.419,30.63c5.672,2.161,12.979,1.929,18.791-0.6
	c2.688-1.168,5.341-2.309,5.897-2.534c0.556-0.225-0.306,0.929-1.915,2.563c-9.235,9.382-29.624,7.167-35.388-3.845
	c-1.821-3.481-7.346-4.096-37.172-4.134c-27.45-0.036-28.027,0.004-31.047,2.13c-1.691,1.191-3.548,2.167-4.125,2.167
	s-2.811,1.516-4.964,3.368c-3.789,3.261-10.797,6.328-14.163,6.198C90.843,296.513,87.716,295.873,84.798,295.124z M97.29,250.062
	c-1.311-1.674-5.23-7.594-8.711-13.154c-15.507-24.78-24.11-32.122-32.581-27.805c-3.535,1.803-5.115-1.268-4.434-8.611
	c0.464-4.995,1.471-7.579,5.625-14.445c5.938-9.811,9.198-17.183,12.716-28.743c3.238-10.644,5.139-13.802,16.085-26.724
	c9.508-11.225,14.983-18.861,16.227-22.628c0.422-1.278,0.173-14.429-0.553-29.223c-1.503-30.65-0.952-37.411,3.84-47.167
	c7.139-14.53,22.348-21.311,42.226-18.825c9.015,1.127,21.858,6.884,27.634,12.386c5.061,4.82,10.896,15.729,12.326,23.044
	c0.57,2.913,1.501,13.055,2.069,22.538c0.841,14.031,1.489,18.485,3.482,23.92c3.616,9.858,15.222,28.763,22.729,37.022
	c10.198,11.222,12.383,14.531,17.068,25.859c11.206,27.089,12.199,47.287,3.061,62.21c-4.929,8.048-8.551,10.962-15.45,12.433
	c-7.447,1.588-12.335,0.547-16.626-3.539c-3.388-3.228-3.479-3.506-2.885-8.912c0.355-3.242,0.191-5.98-0.393-6.536
	c-0.666-0.635-0.609-2.713,0.166-6.158c1.701-7.555,0.585-29.379-1.975-38.615c-2.414-8.71-6.139-16.104-10.966-21.771
	c-2.59-3.04-4.01-6.162-5.476-12.037c-1.191-4.774-4.179-12.041-7.505-18.254c-3.038-5.676-5.525-10.926-5.525-11.666
	s-0.875-2.406-1.945-3.702c-1.322-1.601-1.651-2.801-1.026-3.741c1.249-1.882,1.191-9.267-0.092-11.55
	c-0.775-1.381-0.603-2.654,0.679-4.992c2.633-4.804,2.219-13.653-0.915-19.54c-3.283-6.167-5.727-8.199-10.61-8.823
	c-4.597-0.587-8.449,1.022-12.743,5.325c-3.271,3.276-4.591,9.755-2.919,14.322l1.004,2.742l-7.006-0.027l-7.005-0.026l0.607-3.115
	c1.49-7.635-5.048-17.589-11.554-17.589c-6.031,0-10.147,6.658-10.159,16.437c-0.007,5.057,2.637,14.379,4.077,14.379
	c1.503,0,1.147,2.514-0.545,3.852c-3.016,2.384-1.827,6.316,3.176,10.511c2.58,2.163,4.199,3.934,3.598,3.934
	s-1.375-0.434-1.719-0.963s-1.454-0.963-2.469-0.963c-2.127,0-3.058,2.542-3.077,8.409c-0.011,3.041-1.028,5.654-4.012,10.296
	c-6.54,10.179-8.889,15.197-10.188,21.771c-0.802,4.06-3.613,10.753-8.075,19.228c-8.524,16.191-10.919,23.535-12.077,37.032
	l-0.913,10.635l4.23,4.171c2.326,2.294,9.974,8.463,16.994,13.709c13.109,9.795,15.703,12.449,16.643,17.031
	c0.734,3.585-1.319,5.921-7.015,7.98l-4.736,1.713L97.29,250.062z M235.177,211.026c0-1.119-2.94-3.416-3.586-2.801
	c-0.916,0.872,0.741,3.646,2.178,3.646C234.544,211.871,235.177,211.49,235.177,211.026z M69.38,198.927
	c0-2.76-1.887-4.23-3.076-2.398c-0.914,1.408,0.563,4.749,2.101,4.749C68.94,201.278,69.38,200.22,69.38,198.927z M188.702,107.356
	c1.883-2.161-0.194-5.266-5.306-7.929c-5.634-2.934-6.622-1.624-3.378,4.474c2.04,3.836,3.154,4.933,5.01,4.933
	C186.341,108.834,187.994,108.169,188.702,107.356z M164.514,32.872c2.066-1.593,2.206-2.114,1.157-4.307
	c-1.402-2.932-6.071-4.465-7.42-2.437c-0.488,0.733-0.895,2.959-0.903,4.945c-0.013,3.169,0.28,3.611,2.4,3.611
	C161.077,34.685,163.221,33.869,164.514,32.872z M113.962,78.402c-2.998-3.631-3.727-8.524-1.706-11.462
	c2.185-3.177,3.016-3.032,4.178,0.727c0.626,2.027,1.529,3.043,2.564,2.884c1.049-0.161,1.973,0.915,2.686,3.129
	c1.013,3.142,0.892,3.507-1.754,5.301C116.362,81.399,116.443,81.407,113.962,78.402z M150.187,79.485
	c-5.449-2.822-2.787-15.911,3.235-15.911c1.104,0,1.732,0.425,1.396,0.943c-0.987,1.521,1.406,4.834,3.493,4.834
	c3.814,0,3.651,5.214-0.295,9.39C155.675,81.22,153.868,81.391,150.187,79.485z"/>
<path id="path1455" fill="#714C06" d="M85.554,295.283c-4.977-1.311-14.472-5.939-10.109-4.928
	c5.834,1.354,15.051,1.627,18.481,0.548c5.136-1.614,12.331-7.125,13.843-10.601c1.292-2.972,1.024-11.399-0.47-14.783
	c-0.672-1.522-0.325-1.478,2.993,0.388c4.796,2.695,13.606,4.67,20.919,4.689c7.448,0.02,19.83-2.263,25.704-4.737
	c6.557-2.763,17.182-9.761,23.385-15.402c2.901-2.639,5.476-4.488,5.721-4.111c0.245,0.378,0.046,7.143-0.442,15.032
	c-1.25,20.185,0.552,26.723,8.423,30.558c5.131,2.501,13.625,2.72,19.214,0.495c2.071-0.824,3.765-1.141,3.765-0.703
	s-2.245,1.716-4.989,2.84c-11.036,4.522-24.208,0.975-28.774-7.748c-1.821-3.481-7.346-4.096-37.172-4.134
	c-27.45-0.036-28.027,0.004-31.047,2.13c-1.691,1.191-3.548,2.167-4.125,2.167s-2.811,1.516-4.964,3.368
	c-3.791,3.263-10.801,6.329-14.163,6.196C90.843,296.51,88.056,295.942,85.554,295.283z M94.281,245.265
	c-2.909-4.332-6.591-10.043-8.181-12.691c-7.231-12.044-16.655-22.549-21.92-24.435c-2.833-1.015-6.539-0.516-8.812,1.186
	c-1.025,0.769-1.752,0.551-2.871-0.861c-1.119-1.411-1.355-3.43-0.934-7.972c0.464-4.995,1.471-7.579,5.625-14.445
	c5.938-9.811,9.198-17.183,12.716-28.743c3.238-10.644,5.139-13.802,16.085-26.724c9.508-11.225,14.983-18.861,16.227-22.628
	c0.422-1.278,0.173-14.429-0.553-29.223c-1.503-30.65-0.952-37.411,3.84-47.167c7.139-14.53,22.348-21.311,42.226-18.825
	c9.015,1.127,21.858,6.884,27.634,12.386c5.061,4.82,10.896,15.729,12.326,23.044c0.57,2.913,1.501,13.055,2.069,22.538
	c0.841,14.031,1.489,18.485,3.482,23.92c3.616,9.858,15.222,28.763,22.729,37.022c10.198,11.222,12.383,14.531,17.068,25.859
	c8.253,19.949,10.752,34.889,8.208,49.057c-1.734,9.657-8.844,20.455-15.484,23.518c-5.314,2.45-14.57,2.695-19.021,0.504
	c-3.986-1.964-6.289-7.134-5.403-12.129c0.405-2.281,0.226-4.271-0.455-5.052c-0.823-0.945-0.813-2.661,0.039-6.444
	c1.69-7.511,0.565-29.366-1.985-38.571c-2.414-8.71-6.139-16.104-10.966-21.771c-2.586-3.036-4.014-6.171-5.482-12.037
	c-1.112-4.445-4.474-12.802-7.646-19.007c-9.098-17.797-8.575-16.243-7.415-22.068c0.851-4.27,0.759-5.624-0.508-7.465
	c-1.399-2.033-1.383-2.549,0.167-5.376c2.627-4.792,2.209-13.649-0.921-19.529c-3.283-6.167-5.727-8.199-10.61-8.823
	c-4.597-0.587-8.449,1.022-12.743,5.325c-3.35,3.356-4.581,9.779-2.805,14.633c0.964,2.636,0.9,2.974-0.465,2.475
	c-0.87-0.318-4.083-0.578-7.14-0.578h-5.559l0.647-2.809c1.659-7.195-5.119-17.414-11.552-17.414
	c-6.037,0-10.147,6.658-10.159,16.458c-0.007,5.183,2.375,13.378,4.2,14.453c0.99,0.582,0.906,1.138-0.377,2.493
	c-0.907,0.959-1.954,2.904-2.325,4.323c-0.535,2.043-0.132,3.029,1.943,4.747c2.791,2.313,3.372,4.311,1.434,4.927
	c-0.671,0.213-1.389,3.049-1.653,6.534c-0.379,4.987-1.202,7.303-4.328,12.168c-6.399,9.958-8.76,15.021-10.052,21.559
	c-0.802,4.06-3.613,10.753-8.075,19.228c-8.524,16.191-10.919,23.535-12.077,37.032l-0.913,10.635l4.23,4.171
	c2.326,2.294,9.974,8.463,16.994,13.709c13.109,9.795,15.703,12.449,16.643,17.031c0.736,3.593-1.321,5.922-7.066,7.999
	l-4.787,1.731L94.281,245.265z M235.177,211.026c0-1.119-2.94-3.416-3.586-2.801c-0.916,0.872,0.741,3.646,2.178,3.646
	C234.544,211.871,235.177,211.49,235.177,211.026z M69.38,198.927c0-2.76-1.887-4.23-3.076-2.398
	c-0.914,1.408,0.563,4.749,2.101,4.749C68.94,201.278,69.38,200.22,69.38,198.927z M188.702,107.356
	c1.883-2.161-0.194-5.266-5.306-7.929c-5.634-2.934-6.622-1.624-3.378,4.474c2.04,3.836,3.154,4.933,5.01,4.933
	C186.341,108.834,187.994,108.169,188.702,107.356z M164.514,32.872c2.066-1.593,2.206-2.114,1.157-4.307
	c-1.402-2.932-6.071-4.465-7.42-2.437c-0.488,0.733-0.895,2.959-0.903,4.945c-0.013,3.169,0.28,3.611,2.4,3.611
	C161.077,34.685,163.221,33.869,164.514,32.872z M113.962,78.402c-2.998-3.631-3.727-8.524-1.706-11.462
	c2.185-3.177,3.016-3.032,4.178,0.727c0.663,2.146,1.506,3.044,2.685,2.857c1.251-0.197,1.898,0.651,2.387,3.13
	c0.56,2.842,0.277,3.712-1.718,5.295C116.696,81.402,116.417,81.376,113.962,78.402z M150.688,79.403
	c-2.759-1.297-3.132-1.976-3.327-6.058c-0.249-5.208,2.581-9.771,6.062-9.771c1.104,0,1.732,0.425,1.396,0.943
	c-0.987,1.521,1.406,4.834,3.493,4.834c3.814,0,3.651,5.214-0.295,9.39C155.616,81.282,154.835,81.352,150.688,79.403z"/>
<path id="path1453" fill="#503706" d="M90.104,294.685c1.112-0.455,2.968-0.857,4.123-0.895c3.513-0.113,11.438-5.808,14.096-10.127
	c2.865-4.657,3.045-6.801,1.154-13.745l-1.353-4.964l3.651,1.774c8.786,4.27,24.345,4.869,37.975,1.464
	c8.149-2.036,18.985-8.07,27.882-15.528c4.027-3.376,7.515-5.955,7.749-5.731c0.235,0.224-0.1,6.934-0.744,14.911
	c-1.465,18.148-0.501,24.04,4.694,28.708c1.94,1.743,5.086,3.389,7.206,3.77c2.068,0.372,3.227,0.848,2.573,1.058
	c-1.967,0.632-8.985-1.53-11.79-3.632c-1.445-1.083-3.211-3.121-3.923-4.53c-1.989-3.934-6.601-4.492-37.354-4.532
	c-27.45-0.036-28.027,0.004-31.047,2.13c-1.691,1.191-3.548,2.167-4.125,2.167s-2.757,1.449-4.843,3.22
	c-4.356,3.697-9.089,5.477-14.308,5.379C88.767,295.526,88.463,295.358,90.104,294.685z M94.358,244.459
	c-3.019-4.418-7.678-11.463-10.355-15.656c-5.641-8.834-16.807-20.544-20.412-21.405c-1.365-0.327-4.324-0.068-6.576,0.574
	c-5.342,1.524-6.105,0.469-5.414-7.479c0.438-5.036,1.4-7.522,5.589-14.445c5.938-9.811,9.198-17.183,12.716-28.743
	c3.238-10.644,5.139-13.802,16.085-26.724c9.508-11.225,14.983-18.861,16.227-22.628c0.422-1.278,0.173-14.429-0.553-29.223
	c-1.503-30.65-0.952-37.411,3.84-47.167c7.139-14.53,22.348-21.311,42.226-18.825c9.015,1.127,21.858,6.884,27.634,12.386
	c5.061,4.82,10.896,15.729,12.326,23.044c0.57,2.913,1.501,13.055,2.069,22.538c0.841,14.031,1.489,18.485,3.482,23.92
	c3.616,9.858,15.222,28.763,22.729,37.022c10.198,11.222,12.383,14.531,17.068,25.859c5.788,13.992,8.204,23.146,8.912,33.771
	c0.86,12.902-0.865,20.189-6.804,28.731c-5.441,7.827-7.969,9.729-14.974,11.269c-6.48,1.425-11.914,0.36-15.476-3.033
	c-2.565-2.442-2.881-3.417-2.881-8.885c0-3.377-0.433-6.552-0.961-7.055c-0.606-0.578-0.57-2.512,0.098-5.249
	c0.616-2.526,0.845-9.953,0.546-17.814c-0.746-19.702-4.752-32.322-13.528-42.623c-2.586-3.036-4.014-6.171-5.482-12.037
	c-1.112-4.445-4.474-12.802-7.646-19.007c-9.063-17.73-8.731-16.886-7.496-19.086c1.548-2.755,1.326-8.967-0.396-11.134
	c-1.256-1.58-1.229-2.199,0.205-4.815c2.557-4.662,2.102-13.598-0.989-19.403c-3.283-6.167-5.727-8.199-10.61-8.823
	c-4.639-0.593-8.453,1.025-12.88,5.464c-2.772,2.779-3.032,3.613-3.028,9.716l0.005,6.675h-6.403h-6.404l0.647-2.809
	c1.659-7.195-5.119-17.414-11.552-17.414c-8.629,0-12.886,13.979-8.196,26.917c1.662,4.588,1.723,5.497,0.473,7.196
	c-2.008,2.73-1.78,5.959,0.64,9.076c1.706,2.198,1.884,3.134,1.011,5.32c-0.582,1.459-1.059,4.567-1.059,6.906
	c0,3.264-0.931,5.702-3.998,10.475c-6.54,10.179-8.889,15.197-10.188,21.771c-0.802,4.06-3.613,10.753-8.075,19.228
	c-8.508,16.16-10.909,23.508-12.104,37.032l-0.939,10.635l6.278,5.777c3.454,3.178,11.321,9.521,17.483,14.096
	c7.796,5.787,11.757,9.427,13.022,11.966c2.978,5.978,0.58,9.547-7.73,11.511C100.039,252.446,99.452,251.917,94.358,244.459z
	 M235.177,211.026c0-1.119-2.94-3.416-3.586-2.801c-0.916,0.872,0.741,3.646,2.178,3.646
	C234.544,211.871,235.177,211.49,235.177,211.026z M69.38,198.927c0-2.76-1.887-4.23-3.076-2.398
	c-0.914,1.408,0.563,4.749,2.101,4.749C68.94,201.278,69.38,200.22,69.38,198.927z M188.702,107.356
	c1.883-2.161-0.194-5.266-5.306-7.929c-5.634-2.934-6.622-1.624-3.378,4.474c2.04,3.836,3.154,4.933,5.01,4.933
	C186.341,108.834,187.994,108.169,188.702,107.356z M164.514,32.872c2.066-1.593,2.206-2.114,1.157-4.307
	c-1.402-2.932-6.071-4.465-7.42-2.437c-0.488,0.733-0.895,2.959-0.903,4.945c-0.013,3.169,0.28,3.611,2.4,3.611
	C161.077,34.685,163.221,33.869,164.514,32.872z M151.672,79.506c-3.502-1.422-4.448-3.06-4.448-7.695
	c0-3.754,3.374-8.236,6.199-8.236c1.104,0,1.732,0.425,1.396,0.943c-0.987,1.521,1.406,4.834,3.493,4.834
	c4.19,0,3.117,7.373-1.484,10.189C155.177,80.552,154.231,80.546,151.672,79.506z M113.394,77.727
	c-2.544-3.698-3.011-8.066-1.149-10.771c2.195-3.192,3.025-3.052,4.188,0.711c0.653,2.114,1.513,3.044,2.65,2.865
	c1.167-0.184,1.9,0.676,2.391,2.802c0.585,2.539,0.296,3.366-1.684,4.816C116.614,80.477,115.222,80.385,113.394,77.727z"/>
<path id="path1451" fill="#2C2C2C" d="M111.412,285.297c1.621-3.416,1.624-11.436,0.006-15.124c-2.064-4.706-2.081-4.662,1.193-3.05
	c7.86,3.872,24.057,4.339,37.14,1.07c8.024-2.004,19.096-8.12,27.379-15.124c3.692-3.122,6.91-5.488,7.152-5.258
	c0.241,0.229-0.265,5.85-1.123,12.488c-0.859,6.639-1.563,14.721-1.563,17.959v5.889l-6.824-0.749
	c-3.753-0.412-18.063-0.736-31.801-0.721c-24.194,0.027-25.073,0.096-28.014,2.167C111.299,287.421,110.346,287.543,111.412,285.297
	z M95.351,244.423c-2.999-4.397-7.909-11.827-10.91-16.509c-6.366-9.929-16.695-20.412-20.999-21.313
	c-1.8-0.377-4.444-0.023-6.774,0.903c-4.989,1.985-5.758,0.922-5.067-7.013c0.438-5.036,1.4-7.522,5.589-14.445
	c5.938-9.811,9.198-17.183,12.716-28.743c3.238-10.644,5.139-13.802,16.085-26.724c9.508-11.225,14.983-18.861,16.227-22.628
	c0.422-1.278,0.173-14.429-0.553-29.223c-1.503-30.65-0.952-37.411,3.84-47.167c7.139-14.53,22.348-21.311,42.226-18.825
	c9.015,1.127,21.858,6.884,27.634,12.386c5.061,4.82,10.896,15.729,12.326,23.044c0.57,2.913,1.501,13.055,2.069,22.538
	c0.841,14.031,1.489,18.485,3.482,23.92c3.616,9.858,15.222,28.763,22.729,37.022c3.614,3.978,7.951,9.049,9.638,11.271
	c3.578,4.712,10.928,21.977,13.776,32.36c4.125,15.034,3.352,34.873-1.556,39.923c-1.18,1.213-3.44,4.223-5.023,6.688
	c-5.826,9.072-20.604,12.128-27.392,5.664c-2.228-2.123-2.586-3.306-2.586-8.544c0-4.306-0.427-6.308-1.464-6.86
	c-1.193-0.636-1.269-1.577-0.408-5.104c0.614-2.516,0.842-9.96,0.544-17.805c-0.746-19.702-4.752-32.322-13.528-42.623
	c-2.586-3.036-4.014-6.171-5.482-12.037c-1.106-4.422-4.485-12.834-7.634-19.007c-3.107-6.091-6.19-12.163-6.852-13.495
	c-0.941-1.894-0.923-3.048,0.084-5.296c1.788-3.994,1.683-9.255-0.236-11.865c-1.392-1.892-1.43-2.622-0.276-5.27
	c2.109-4.844,1.47-13.104-1.438-18.564c-3.255-6.115-5.708-8.148-10.582-8.771c-4.638-0.593-8.451,1.024-12.88,5.461
	c-2.726,2.73-3.033,3.667-3.033,9.234v6.196h-6.338c-6.159,0-6.32-0.064-5.737-2.278c1.73-6.565-5.401-16.981-11.627-16.981
	c-8.526,0-12.89,13.977-8.307,26.607c1.722,4.745,1.721,5.025-0.033,7.088c-2.382,2.802-2.323,7.287,0.133,10.262
	c1.681,2.035,1.872,3.354,1.35,9.3c-0.505,5.748-1.261,7.944-4.439,12.892c-6.369,9.916-8.73,14.985-10.021,21.514
	c-0.802,4.06-3.613,10.753-8.075,19.228c-8.508,16.16-10.909,23.508-12.104,37.032l-0.939,10.635l6.278,5.777
	c3.454,3.178,11.321,9.521,17.483,14.096c7.796,5.787,11.757,9.427,13.022,11.966c2.92,5.862,0.851,9.127-7.25,11.441
	C101.096,252.336,100.093,251.375,95.351,244.423z M235.177,211.026c0-1.119-2.94-3.416-3.586-2.801
	c-0.916,0.872,0.741,3.646,2.178,3.646C234.544,211.871,235.177,211.49,235.177,211.026z M69.38,198.927
	c0-2.76-1.887-4.23-3.076-2.398c-0.914,1.408,0.563,4.749,2.101,4.749C68.94,201.278,69.38,200.22,69.38,198.927z M188.702,107.356
	c1.883-2.161-0.194-5.266-5.306-7.929c-5.634-2.934-6.622-1.624-3.378,4.474c2.04,3.836,3.154,4.933,5.01,4.933
	C186.341,108.834,187.994,108.169,188.702,107.356z M164.514,32.872c2.066-1.593,2.206-2.114,1.157-4.307
	c-1.402-2.932-6.071-4.465-7.42-2.437c-0.488,0.733-0.895,2.959-0.903,4.945c-0.013,3.169,0.28,3.611,2.4,3.611
	C161.077,34.685,163.221,33.869,164.514,32.872z M113.405,77.744c-2.554-3.714-3.023-8.079-1.16-10.788
	c2.195-3.192,3.025-3.052,4.188,0.711c0.645,2.087,1.519,3.043,2.622,2.871c2.578-0.401,3.536,4.644,1.197,6.31
	C115.908,79.943,115,80.061,113.405,77.744z M151.267,78.258c-3.061-1.456-3.579-2.21-3.839-5.588
	c-0.348-4.501,2.681-9.096,5.994-9.096c1.104,0,1.732,0.425,1.396,0.943c-0.987,1.521,1.406,4.834,3.493,4.834
	c3.545,0,3.675,5.084,0.228,8.908C156.643,80.362,155.69,80.362,151.267,78.258z"/>
<path id="path1449" fill="#040406" d="M111.804,284.156c1.344-2.392,1.348-9.774,0.007-13.134c-0.571-1.432-0.87-2.765-0.663-2.962
	s2.381,0.356,4.831,1.229c6.03,2.149,23.395,2.132,32.256-0.032c10.555-2.578,18.117-6.715,32.262-17.646l3.449-2.666l-0.694,7.703
	c-0.383,4.237-0.979,11.969-1.327,17.182l-0.632,9.478l-3.64-0.569c-2.001-0.313-12.737-0.831-23.858-1.151
	c-22.321-0.643-36.949,0.416-39.809,2.881C111.549,286.568,110.531,286.423,111.804,284.156z M93.784,241.964
	c-3.34-5.164-8.036-12.398-10.437-16.077c-5.364-8.221-15.653-18.472-19.452-19.38c-1.551-0.371-4.438-0.2-6.417,0.378
	c-1.979,0.578-4.034,0.794-4.568,0.479c-0.545-0.32-0.749-3.21-0.466-6.576c0.426-5.048,1.402-7.499,6.132-15.384
	c3.666-6.112,7.237-14.062,10.253-22.822c2.545-7.394,5.484-15.036,6.531-16.984s6.505-8.917,12.129-15.487
	c5.623-6.569,11.644-14.69,13.378-18.046l3.153-6.102l-1.297-25.023c-1.669-32.195-1.161-39.534,3.36-48.569
	c4.129-8.251,8.322-12.33,16.371-15.929c11.659-5.212,26.892-4.531,40.455,1.808c9.781,4.571,14.328,8.709,19.125,17.404
	c4.561,8.266,5.431,12.691,6.717,34.164c1.202,20.061,2.896,26.125,11.3,40.461c7.485,12.769,10.91,17.497,18.483,25.519
	c12.86,13.621,22.709,39.491,22.709,59.649c0,11.45-3.11,23.432-4.227,16.28c-0.483-3.095-4.7-5.424-10.938-6.041l-5.56-0.551
	l4.181,1.838c5.028,2.209,5.877,3.358,5.581,7.552l-0.228,3.208l3.067-1.511c3.977-1.959,3.991-0.594,0.057,5.246
	c-4.264,6.33-9.786,9.071-18.128,8.996c-6.031-0.054-6.776-0.298-9.387-3.082c-3.149-3.356-2.868-0.564-3.307-32.845
	c-0.323-23.831-3.625-35.79-13.135-47.578c-2.796-3.467-4.464-7.062-6.255-13.482c-1.344-4.814-4.663-13.087-7.376-18.384
	c-7.117-13.891-7.97-16.102-7.063-18.296c1.295-3.136,1.044-9.605-0.449-11.55c-1.175-1.531-1.175-2.289,0-4.968
	c3.277-7.471,0.738-19.462-5.421-25.601c-7.42-7.396-21.061-2.528-24.02,8.572c-1.026,3.85-1.608,4.587-3.647,4.618
	c-3.709,0.059-3.83,1.843-0.199,2.961c5.295,1.63,5.021,2.374-0.878,2.374h-5.561v-4.18c0-12.223-12.218-20.701-18.911-13.124
	c-4.895,5.54-6.06,15.814-2.782,24.525c1.77,4.704,1.765,4.902-0.227,8.576l-2.038,3.762l2.159,3.573
	c1.873,3.101,2.076,4.513,1.533,10.683c-0.522,5.95-1.249,8.083-4.455,13.073c-6.198,9.65-8.597,14.798-10.309,22.132
	c-0.976,4.182-4.179,11.787-8.111,19.263c-7.949,15.11-10.496,22.714-11.391,33.999c-1.033,13.04-2.978,11.197-4.102-3.889
	c-0.708-9.504,0.728-14.46,8.453-29.179c2.462-4.689,4.239-8.752,3.95-9.026c-1.379-1.313-3.489,1.139-7.34,8.528
	c-5.4,10.362-8.107,18.094-9.439,26.958c-0.587,3.907-1.17,7.774-1.296,8.596c-0.252,1.645,7.317,10.621,14.426,17.107
	c2.505,2.285,10.05,8.234,16.767,13.219c13,9.648,16.377,13.688,15.195,18.174c-0.668,2.536-5.479,5.378-9.104,5.378
	C100.52,251.352,97.124,247.128,93.784,241.964z M212.431,205.631c2.688-1.627,6.22-11.57,7.704-21.686
	c1.509-10.288,0.019-15.754-6.949-25.475c-4.94-6.895-13.42-13.61-15.994-12.669c-1.742,0.637-0.748,3.477,1.216,3.477
	c1.833,0,10.055,7.195,11.98,10.484c6.602,11.274,6.872,12.262,6.322,23.085c-0.653,12.865-2.731,18.873-7.446,21.522
	c-1.872,1.052-3.404,2.333-3.404,2.846C205.86,208.294,209.473,207.422,212.431,205.631z M208.668,167.038
	c3.007-2.006,2.838-4.828-0.411-6.855c-2.574-1.607-2.718-1.589-4.549,0.565c-1.878,2.209-2.51,5.917-1.218,7.147
	C203.631,168.982,206.311,168.61,208.668,167.038z M188.674,108.834c1.112-1.06,2.021-2.479,2.021-3.156
	c0-2.27-3.132-5.52-7.241-7.517c-7.074-3.438-8.844-0.82-4.365,6.458c2.324,3.777,4.839,6.035,6.805,6.111
	C186.31,110.746,187.561,109.892,188.674,108.834z M126.107,53.184c-1.155-2.057-5.896-4.646-6.848-3.739
	c-0.969,0.923,3.873,5.24,6.011,5.36C126.7,54.886,126.874,54.549,126.107,53.184z M167.443,53.569c0-2.594-3.506-5.605-6.104-5.244
	l-2.489,0.346l3.512,3.118C166.188,55.188,167.443,55.628,167.443,53.569z M163.943,35.875c7.603-2.576,7.787-2.764,5.975-6.102
	c-2.956-5.444-12.757-8.921-13.979-4.959c-1.258,4.079-1.778,8.897-1.161,10.75C155.595,38.017,157.435,38.08,163.943,35.875z
	 M114.067,77.772c-1.626-1.865-2.515-6.235-1.813-8.902c0.701-2.661,2.618-3.297,2.618-0.867c0,0.847,1.425,2.808,3.167,4.357
	c3.067,2.729,3.109,2.877,1.359,4.72C117.318,79.27,115.57,79.497,114.067,77.772z M149.823,77.469
	c-2.038-1.942-2.047-8.027-0.015-10.791c2.056-2.796,2.727-2.701,4.262,0.601c0.7,1.508,2.403,3.232,3.785,3.831
	c2.904,1.261,3.145,2.73,0.938,5.732C156.924,79.383,152.181,79.715,149.823,77.469z"/>
</svg>
