<?xml version="1.0" encoding="utf-8"?>
<!-- Generator: Adobe Illustrator 16.0.0, SVG Export Plug-In . SVG Version: 6.00 Build 0)  -->
<!DOCTYPE svg PUBLIC "-//W3C//DTD SVG 1.1//EN" "http://www.w3.org/Graphics/SVG/1.1/DTD/svg11.dtd">
<svg version="1.1" id="Layer_1" xmlns="http://www.w3.org/2000/svg" xmlns:xlink="http://www.w3.org/1999/xlink" x="0px" y="0px"
	 width="192.756px" height="192.756px" viewBox="0 0 192.756 192.756" enable-background="new 0 0 192.756 192.756"
	 xml:space="preserve">
<g>
	<path fill="#939598" d="M119.938,20.875h23.416h0.285V21.3v4.258h9.225h0.283v0.284v4.683h4.684h0.283v0.284v13.767v0.284h-0.283
		h-18.875v4.4h9.225h0.426v0.284v4.257h4.259h0.284v0.284v4.258h4.683h0.283v0.283v14.192v0.284h-0.283h-4.683v4.541v0.426h-0.284
		h-4.259v4.258v0.284h-0.426h-32.783h-0.285v-0.284V78.07h-4.684h-0.283v-0.426v-4.541h-4.258h-0.283v-0.284V58.626v-0.283h0.283
		h13.768v-3.974h-9.227h-0.283v-0.284v-4.257h-4.258h-0.283v-0.284V30.81v-0.284h0.283h4.258v-4.683v-0.284h0.283h9.227v-4.258
		v-0.425L119.938,20.875L119.938,20.875z M143.069,21.584h-22.85v4.258v0.284h-0.283h-9.226v4.683v0.284h-0.284h-4.257V49.26h4.257
		h0.284v0.284v4.257h9.226h0.283v0.284v4.258h13.908h0.284v0.283v4.825h4.258h0.284v0.284v4.4v0.283h-0.284h-14.05h-0.283v-0.283
		V64.02h-4.398h-0.285v-0.284v-4.825h-13.481v13.624h4.257h0.284v0.284v4.542h4.685h0.283v0.284v4.4h32.217v-4.4V77.36h0.283h4.399
		v-4.542v-0.284h0.284h4.683V58.911h-4.683h-0.284v-0.285v-4.257h-4.399h-0.283v-0.284v-4.257h-9.226h-0.284v-0.284V44.86H124.62
		h-0.283v-0.284v-9.083V35.21h0.283h14.051h0.284v0.284v8.799h18.591v-13.2h-4.684h-0.283V30.81v-4.683h-9.227h-0.283v-0.284V21.584
		L143.069,21.584z M138.388,44.292v-8.515h-13.482v8.515H138.388L138.388,44.292z M120.222,58.911v4.541h4.398h0.283v0.284v4.116
		h13.482V64.02h-4.258h-0.283v-0.284v-4.825H120.222L120.222,58.911z"/>
	<polygon fill="#8E9091" points="30.384,20.875 49.118,20.875 49.402,20.875 49.402,21.301 49.402,25.559 54.085,25.559 
		54.369,25.559 54.369,25.843 54.369,35.21 58.77,35.21 59.053,35.21 59.053,35.494 59.053,44.292 63.31,44.292 63.594,44.292 
		63.594,44.577 63.594,53.801 67.852,53.801 67.852,44.577 67.852,44.292 68.136,44.292 72.819,44.292 72.819,35.494 72.819,35.21 
		73.103,35.21 77.36,35.21 77.36,25.843 77.36,25.559 77.645,25.559 81.902,25.559 81.902,21.301 81.902,20.875 82.187,20.875 
		101.345,20.875 101.629,20.875 101.629,21.301 101.629,82.328 101.629,82.612 101.345,82.612 82.187,82.612 81.902,82.612 
		81.902,82.328 81.902,64.02 77.928,64.02 77.928,72.819 77.928,73.103 77.645,73.103 73.387,73.103 73.387,82.328 73.387,82.612 
		73.103,82.612 58.77,82.612 58.343,82.612 58.343,82.328 58.343,73.103 54.085,73.103 53.801,73.103 53.801,72.819 53.801,64.02 
		49.402,64.02 49.402,82.328 49.402,82.612 49.118,82.612 30.384,82.612 30.1,82.612 30.1,82.328 30.1,21.301 30.1,20.875 	"/>
	<path fill="#8E9091" d="M58.343,110.854h-8.941v32.5h13.624v-9.084H58.77h-0.426v-0.283v-23.133H58.343z M100.919,110.854h-4.257
		v27.676h4.257v-4.543v-0.283h0.426h4.26v-4.398v-0.285h0.283h9.225v-3.974h-4.684h-0.283v-0.284v-4.257h-4.258h-0.283v-0.284
		v-4.258h-4.26h-0.426v-0.283V110.854L100.919,110.854z M143.069,134.271h-8.656v4.26h8.656V134.271L143.069,134.271z M25.843,77.36
		h47.26h0.284v0.284v4.4h3.973v-4.4V77.36h0.284h32.783h0.284v0.284v4.4h4.399v-4.4V77.36h0.283h32.783h0.426v0.284v4.4h9.227h0.283
		v0.284v4.257h4.259h0.284v0.284v4.968h4.257h0.427v0.283v13.767v0.427h-0.427h-4.257v4.258v0.283h-0.284h-13.769v4.399h9.227h0.283
		v0.425v4.258h4.259h0.284v0.285v4.256h4.257h0.427v0.284v32.784v0.284h-0.427h-4.257v4.399v0.283h-0.284h-4.259v4.399v0.284h-0.283
		h-9.227v4.258v0.425h-0.426h-28.24h-0.285v-0.425v-4.258h-3.975v4.258v0.425h-0.283H82.187h-0.284v-0.425v-4.258h-8.515v4.258
		v0.425h-0.284h-47.26h-0.426v-0.425v-93.81V77.36H25.843L25.843,77.36z M147.896,110.285v-3.974h-4.541h-0.283v-0.426v-4.684
		h-4.115v9.082L147.896,110.285L147.896,110.285z"/>
	<path d="M134.129,133.703h9.226h0.285v0.282v4.826v0.285h-0.285h-9.226h-0.284v-0.285v-4.826v-0.282H134.129L134.129,133.703z
		 M72.819,78.07H26.127v93.101h46.692v-4.258v-0.284h0.284h9.083h0.426v0.284v4.258h32.499v-4.258v-0.284h0.285h4.541h0.283v0.284
		v4.258h27.676v-4.258v-0.284h0.283h9.366v-4.399v-0.426h0.284h4.258v-4.258v-0.283h0.284h4.257v-32.217h-4.257h-0.284v-0.283
		v-4.258h-4.258h-0.284v-0.283v-4.259h-9.366h-0.283v-0.284v-4.824h-9.226h-0.284v-0.283v-9.652v-0.281h0.284h4.683h0.285v0.281
		v4.686h4.54h0.427v0.283v4.398h13.482v-4.398v-0.283h0.284h4.257V92.404h-4.257h-0.284V92.12v-4.967h-4.258h-0.284v-0.284v-4.257
		h-9.367h-0.282v-0.284V78.07h-32.218v4.258v0.284h-0.282h-4.969h-0.283v-0.284V78.07H77.928v4.258v0.284h-0.284h-4.542h-0.284
		v-0.284L72.819,78.07L72.819,78.07z M96.378,110.285h4.967h0.284v0.284v4.685h4.259h0.283v0.425v4.258h4.258h0.283v0.285v4.256
		h4.684h0.283v0.285v4.541v0.284h-0.283h-9.225v4.397v0.285h-0.283h-4.259v4.541v0.285h-0.284h-4.967h-0.284v-0.285v-28.242v-0.284
		H96.378L96.378,110.285z M49.118,110.285h9.652h0.284v0.284v23.134h4.257h0.284v0.282v9.652v0.283H63.31H49.118h-0.284v-0.283
		v-33.068v-0.284H49.118L49.118,110.285z"/>
	<path fill="#9F9238" d="M143.354,96.378h4.824v4.54h9.651v-4.54h4.542v9.51h-14.193v-4.97h-4.824V96.378L143.354,96.378z
		 M105.888,138.812h4.541v9.366h4.967v4.826h9.226v4.541h23.56v-4.541h4.685v-4.826h4.967v-4.54h4.542v13.907h-4.542v4.685h-9.651
		v4.684h-28.24v-4.684h-4.543v-4.685h-4.967v-4.541h-4.541v-14.192H105.888z M138.671,124.763h4.684v4.541h4.824v4.684h-4.824
		v-4.684h-4.684V124.763L138.671,124.763z M105.888,110.569h4.541v5.108h4.967v4.542h-4.967v-4.542h-4.541V110.569L105.888,110.569z
		"/>
	<path fill="#FAE629" d="M105.888,133.985h14.051v4.826h4.683v4.826h18.733v-4.826h4.824v-9.509h-4.824v-4.542h-4.684v-9.083h9.508
		v4.542h9.651v4.541h4.542v18.877h-4.542v4.54h-4.968v4.826h-4.684v4.541H124.62v-4.541h-9.225v-4.826h-4.969v-9.366h-4.541v-4.826
		H105.888z M115.396,86.869h-4.967v5.251h-4.541v18.449h4.541v5.108h4.967v-14.761h4.543v-4.54h28.24v4.54h9.651v-4.54h4.542V92.12
		h-4.542v-5.251h-9.651v-4.541h-32.783V86.869L115.396,86.869z"/>
	<polygon fill="#EE2229" points="30.384,82.328 68.136,82.328 68.136,86.869 63.31,86.869 63.31,96.378 44.577,96.378 
		44.577,148.179 68.136,148.179 68.136,143.64 73.103,143.64 73.103,138.812 77.645,138.812 77.645,133.985 82.187,133.985 
		82.187,100.918 91.837,100.918 91.837,138.812 86.87,138.812 86.87,143.64 82.187,143.64 82.187,148.179 77.645,148.179 
		77.645,153.005 68.136,153.005 68.136,157.546 30.384,157.546 	"/>
	<path fill="#AB2A30" d="M44.577,96.378H63.31v4.54h-4.54v4.97H44.577V96.378L44.577,96.378z M68.136,82.328h4.967v4.541h-4.967
		v5.251H63.31v-5.251h4.826V82.328L68.136,82.328z"/>
	<polygon fill="#AB2A30" points="30.384,157.546 68.136,157.546 68.136,153.005 77.645,153.005 77.645,162.229 73.103,162.229 
		73.103,166.913 30.384,166.913 	"/>
	<polygon points="48.834,21.584 30.668,21.584 30.668,82.044 48.834,82.044 48.834,63.736 48.834,63.452 49.118,63.452 
		54.085,63.452 54.369,63.452 54.369,63.736 54.369,72.535 58.77,72.535 59.053,72.535 59.053,72.819 59.053,82.044 72.819,82.044 
		72.819,72.819 72.819,72.535 73.103,72.535 77.36,72.535 77.36,63.736 77.36,63.452 77.645,63.452 82.187,63.452 82.612,63.452 
		82.612,63.736 82.612,82.044 100.919,82.044 100.919,21.584 82.612,21.584 82.612,25.843 82.612,26.127 82.187,26.127 
		77.928,26.127 77.928,35.494 77.928,35.777 77.645,35.777 73.387,35.777 73.387,44.577 73.387,44.86 73.103,44.86 68.419,44.86 
		68.419,54.085 68.419,54.369 68.136,54.369 63.31,54.369 63.026,54.369 63.026,54.085 63.026,44.86 58.77,44.86 58.343,44.86 
		58.343,44.577 58.343,35.777 54.085,35.777 53.801,35.777 53.801,35.494 53.801,26.127 49.118,26.127 48.834,26.127 48.834,25.843 
			"/>
	<polygon fill="#CFCFCF" points="35.068,25.843 44.577,25.843 44.577,30.81 49.118,30.81 49.118,39.893 54.085,39.893 
		54.085,49.544 58.77,49.544 58.77,58.626 63.31,58.626 63.31,68.136 68.136,68.136 68.136,54.085 73.103,54.085 73.103,44.577 
		77.645,44.577 77.645,35.494 82.187,35.494 82.187,25.843 91.837,25.843 91.837,77.644 86.87,77.644 86.87,44.577 82.187,44.577 
		82.187,54.085 77.645,54.085 77.645,63.736 73.103,63.736 73.103,72.819 68.136,72.819 68.136,77.644 63.31,77.644 63.31,72.819 
		58.77,72.819 58.77,63.736 54.085,63.736 54.085,54.085 49.118,54.085 49.118,44.577 44.577,44.577 44.577,39.893 40.035,39.893 
		40.035,77.644 35.068,77.644 	"/>
	<path fill="#8E9091" d="M91.837,25.843h4.541v51.801h-4.541V25.843L91.837,25.843z M82.187,44.577h4.683v4.967h-4.683V44.577
		L82.187,44.577z M44.577,25.843h4.541v4.967h-4.541V25.843L44.577,25.843z M49.118,35.494h4.968v4.399h-4.968V35.494L49.118,35.494
		z M54.085,44.577h4.684v4.967h-4.684V44.577L54.085,44.577z M58.77,54.085h4.541v4.542H58.77V54.085L58.77,54.085z M63.31,63.736
		h4.826v4.4H63.31V63.736L63.31,63.736z M40.035,39.893v37.751h4.542v-28.1h4.541v-4.967h-4.541v-4.684H40.035L40.035,39.893z"/>
	<polygon points="143.069,21.584 120.222,21.584 120.222,25.843 120.222,26.127 119.938,26.127 110.712,26.127 110.712,30.81 
		110.712,31.093 110.429,31.093 106.171,31.093 106.171,49.26 110.429,49.26 110.712,49.26 110.712,49.544 110.712,53.801 
		119.938,53.801 120.222,53.801 120.222,54.085 120.222,58.343 134.129,58.343 134.413,58.343 134.413,58.626 134.413,63.452 
		138.671,63.452 138.955,63.452 138.955,63.736 138.955,68.136 138.955,68.419 138.671,68.419 124.62,68.419 124.337,68.419 
		124.337,68.136 124.337,64.02 119.938,64.02 119.653,64.02 119.653,63.736 119.653,58.911 106.171,58.911 106.171,72.535 
		110.429,72.535 110.712,72.535 110.712,72.819 110.712,77.36 115.396,77.36 115.679,77.36 115.679,77.644 115.679,82.044 
		147.896,82.044 147.896,77.644 147.896,77.36 148.179,77.36 152.579,77.36 152.579,72.819 152.579,72.535 152.862,72.535 
		157.546,72.535 157.546,58.911 152.862,58.911 152.579,58.911 152.579,58.626 152.579,54.369 148.179,54.369 147.896,54.369 
		147.896,54.085 147.896,49.828 138.671,49.828 138.388,49.828 138.388,49.544 138.388,44.86 124.62,44.86 124.337,44.86 
		124.337,44.577 124.337,35.494 124.337,35.21 124.62,35.21 138.671,35.21 138.955,35.21 138.955,35.494 138.955,44.292 
		157.546,44.292 157.546,31.093 152.862,31.093 152.579,31.093 152.579,30.81 152.579,26.127 143.354,26.127 143.069,26.127 
		143.069,25.843 	"/>
	<path fill="#CFCFCF" d="M110.429,30.81h9.51v-4.967h18.732v4.967h9.508v9.083h-4.824v-4.399h-4.684V30.81h-18.732v4.684h-4.543
		v14.05h-4.967V30.81L110.429,30.81z M119.938,49.544v4.541h14.19v4.542h4.542v5.109h4.684v4.4h-4.684v4.683h-18.732v-9.083h-9.51
		v9.083h4.967v4.825h27.959v-4.825h4.824V58.626h-4.824v-4.542h-9.226v-4.541L119.938,49.544L119.938,49.544z"/>
	<path fill="#8E9091" d="M119.938,30.81h4.683v4.684h-4.683v9.083h4.683v4.967h-9.226v-14.05h4.543V30.81L119.938,30.81z
		 M148.179,58.626h4.686v14.192h-4.686v4.825h-4.824v-4.825h4.824V58.626h-4.824v-4.542h4.824V58.626L148.179,58.626z
		 M134.129,49.544h4.542v4.541h-4.542V49.544L134.129,49.544z M148.179,30.81h4.686v9.083h-4.686V30.81L148.179,30.81z
		 M138.671,25.843h4.684v4.967h-4.684V25.843L138.671,25.843z"/>
	<path fill="#95298E" d="M96.378,96.378h4.967v4.54h-4.967V96.378L96.378,96.378z M82.187,157.546h4.683v4.684h4.968v-4.684h4.541
		v4.684h4.968h4.541v4.685h4.541v-4.685h-4.541v-4.684h-4.541v4.684v4.685h-4.968v-4.685h-4.541v4.685H86.87v-4.685h-4.683V157.546
		L82.187,157.546z M119.938,105.888h4.683v4.684h-4.683V105.888L119.938,105.888z M119.938,124.763h4.683v4.541h-4.683V124.763
		L119.938,124.763z M119.938,115.679h4.683v4.543h-4.683V115.679L119.938,115.679z M73.103,120.222h4.542v4.541h-4.542V120.222
		L73.103,120.222z M73.103,110.569h4.542v5.108h-4.542V110.569L73.103,110.569z M73.103,100.918h4.542v-4.54h4.542v4.54h-4.542v4.97
		h-4.542V100.918L73.103,100.918z"/>
	<path fill="#B6228A" d="M96.378,143.64h4.967v4.539h-4.967v4.826h4.967v4.541h-4.967v-4.541h-4.541v4.541H86.87v-4.541h4.968
		v-4.826h4.541L96.378,143.64L96.378,143.64z M68.136,133.985h4.967v4.826h-4.967V133.985H63.31v-4.683h4.826v-4.542H63.31v-4.541
		h4.826v-4.542H63.31v-5.108h4.826v-4.684H63.31v-4.969h4.826v-4.54h4.967V92.12h4.542v-5.251h4.542v-4.541h4.683v4.541h4.968
		v-4.541h4.541v4.541h4.968v-4.541h4.541v4.541h-4.541v5.251h-4.968v4.258h-4.541V92.12H86.87v4.258h-4.683V92.12h-4.542v4.258
		h-4.542v4.54h-4.967v4.97h4.967v4.684h-4.967v5.107h4.967v4.543h-4.967v4.541h4.967v4.541h-4.967V133.985L68.136,133.985z
		 M96.378,92.12v-5.251h-4.541v5.251H96.378L96.378,92.12z M86.87,92.12v-5.251h-4.683v5.251H86.87L86.87,92.12z M124.62,100.918
		h4.542v4.97h4.967v4.684h-4.967v5.107h4.967v4.543h-4.967v4.541h4.967v4.541h-4.967v4.684h-4.542v-4.684h4.542v-4.541h-4.542
		v-4.541h4.542v-4.543h-4.542v-5.107h4.542v-4.684h-4.542V100.918L124.62,100.918z"/>
	<path fill="#2E3695" d="M124.62,133.985h4.542v-4.683h-4.542v-4.542h4.542v-4.541h-4.542v-4.542h4.542v-5.108h-4.542v-4.684h4.542
		v-4.969h4.967v4.969h-4.967v4.684h4.967v5.108h-4.967v4.542h4.967v4.541h-4.967v4.542h4.967v4.683h-4.967v4.826h-4.542V133.985
		L124.62,133.985z M73.103,133.985h-4.967v-4.683H63.31v-4.542h4.826v-4.541H63.31v-4.542h4.826v-5.108H63.31v-4.684h4.826v-4.969
		h4.967v-4.54h-4.967V92.12h4.967v-5.251h4.542v-4.541h4.542v4.541h4.683v-4.541h4.968v4.541h4.541v-4.541h4.968v4.541h-4.968v5.251
		h4.968v4.258h-4.968V92.12h-4.541v4.258H86.87V92.12h-4.683v4.258h-4.542v4.54h-4.542v4.97h-4.967v4.684h4.967v5.107h-4.967v4.543
		h4.967v4.541h-4.967v4.541h4.967V133.985L73.103,133.985z M91.837,86.869H86.87v5.251h4.968L91.837,86.869L91.837,86.869z
		 M82.187,86.869h-4.542v5.251h4.542V86.869L82.187,86.869z M77.645,92.12h-4.542v4.258h4.542V92.12L77.645,92.12z M82.187,153.005
		h4.683v-4.826h4.968v-4.539h4.541v4.539h4.968v4.826h4.541v4.541h-4.541v-4.541h-4.968v4.541h-4.541v-4.541H86.87v4.541h-4.683
		V153.005L82.187,153.005z M96.378,148.179h-4.541v4.826h4.541V148.179L96.378,148.179z"/>
	<path fill="#2F318F" d="M82.187,162.229h4.683v-4.685h4.968v4.685h4.541v-4.685h4.968v4.685h4.541v-4.685h4.541v4.685h4.969v4.684
		h-4.969v-4.684h-4.541v4.684h-4.541v-4.684h-4.968v4.684h-4.541v-4.684H86.87v4.684h-4.683V162.229L82.187,162.229z
		 M73.103,124.763h4.542v4.541h-4.542V124.763L73.103,124.763z M96.378,100.918h4.967v4.97h-4.967V100.918L96.378,100.918z
		 M101.345,86.869h4.543v-4.541h4.541v4.541h-4.541v5.251h-4.543V86.869L101.345,86.869z M73.103,105.888h4.542v4.684h-4.542
		V105.888L73.103,105.888z M73.103,115.679h4.542v4.543h-4.542V115.679L73.103,115.679z M119.938,100.918h4.683v4.97h-4.683V100.918
		L119.938,100.918z M119.938,129.304h4.683v4.684h-4.683V129.304L119.938,129.304z M119.938,120.222h4.683v4.541h-4.683V120.222
		L119.938,120.222z M119.938,110.569h4.683v5.108h-4.683V110.569L119.938,110.569z"/>
</g>
</svg>
