<?xml version="1.0" encoding="utf-8"?>
<!-- Generator: Adobe Illustrator 16.0.0, SVG Export Plug-In . SVG Version: 6.00 Build 0)  -->
<!DOCTYPE svg PUBLIC "-//W3C//DTD SVG 1.1//EN" "http://www.w3.org/Graphics/SVG/1.1/DTD/svg11.dtd">
<svg version="1.1" id="Capa_1" xmlns="http://www.w3.org/2000/svg" xmlns:xlink="http://www.w3.org/1999/xlink" x="0px" y="0px"
	 width="70.565px" height="68.206px" viewBox="0 0 70.565 68.206" enable-background="new 0 0 70.565 68.206" xml:space="preserve">
<g>
	<path fill="#231F20" stroke="#231F20" stroke-width="0.75" stroke-miterlimit="2.6131" d="M58.461,0.375
		c6.474,0,11.729,5.251,11.729,11.729c0,6.478-5.255,11.729-11.729,11.729c-6.481,0-11.735-5.252-11.735-11.729
		C46.726,5.626,51.98,0.375,58.461,0.375L58.461,0.375z M58.461,2.466c-5.325,0-9.638,4.317-9.638,9.638
		c0,5.322,4.313,9.64,9.638,9.64c5.318,0,9.637-4.314,9.637-9.64C68.098,6.783,63.78,2.466,58.461,2.466z"/>
	<path fill="none" stroke="#231F20" stroke-width="0.75" stroke-miterlimit="2.6131" d="M46.758,55.259L22.22,39.932
		c1.027-1.739,1.613-3.77,1.613-5.939c0-2.168-0.589-4.201-1.613-5.942l24.525-15.322c0.316,5.96,5.073,10.741,11.025,11.085v20.576
		C51.89,44.735,47.171,49.402,46.758,55.259z"/>
	<path fill="#231F20" stroke="#231F20" stroke-width="0.75" stroke-miterlimit="2.6131" d="M58.461,44.374
		c6.474,0,11.729,5.251,11.729,11.729c0,6.48-5.255,11.729-11.729,11.729c-6.481,0-11.735-5.248-11.735-11.729
		C46.726,49.625,51.98,44.374,58.461,44.374L58.461,44.374z M58.461,46.461c-5.325,0-9.638,4.315-9.638,9.638
		c0,5.321,4.313,9.64,9.638,9.64c5.318,0,9.637-4.314,9.637-9.64C68.098,50.777,63.78,46.461,58.461,46.461z"/>
	<path fill="#231F20" stroke="#231F20" stroke-width="0.75" stroke-miterlimit="2.6131" d="M12.104,22.267
		c6.478,0,11.729,5.251,11.729,11.729c0,6.473-5.252,11.73-11.729,11.73c-6.478,0-11.729-5.251-11.729-11.73
		C0.375,27.518,5.626,22.267,12.104,22.267L12.104,22.267z M12.104,24.358c-5.321,0-9.638,4.317-9.638,9.638
		c0,5.323,4.317,9.636,9.638,9.636c5.321,0,9.637-4.313,9.637-9.636C21.741,28.675,17.425,24.358,12.104,24.358z"/>
</g>
</svg>
