<?xml version="1.0" encoding="utf-8"?>
<!-- Generator: Adobe Illustrator 16.0.0, SVG Export Plug-In . SVG Version: 6.00 Build 0)  -->
<!DOCTYPE svg PUBLIC "-//W3C//DTD SVG 1.1//EN" "http://www.w3.org/Graphics/SVG/1.1/DTD/svg11.dtd">
<svg version="1.1"
	 id="svg2" inkscape:version="0.48.2 r9819" sodipodi:docname="star_yellow.svg" xmlns:cc="http://creativecommons.org/ns#" xmlns:sodipodi="http://sodipodi.sourceforge.net/DTD/sodipodi-0.dtd" xmlns:svg="http://www.w3.org/2000/svg" xmlns:dc="http://purl.org/dc/elements/1.1/" xmlns:rdf="http://www.w3.org/1999/02/22-rdf-syntax-ns#" xmlns:inkscape="http://www.inkscape.org/namespaces/inkscape"
	 xmlns="http://www.w3.org/2000/svg" xmlns:xlink="http://www.w3.org/1999/xlink" x="0px" y="0px" width="250px" height="250px"
	 viewBox="0 0 250 250" enable-background="new 0 0 250 250" xml:space="preserve">
<sodipodi:namedview  fit-margin-bottom="0" inkscape:document-units="px" inkscape:pageshadow="2" inkscape:window-height="744" inkscape:window-maximized="1" inkscape:snap-smooth-nodes="true" fit-margin-right="0" inkscape:window-width="1366" inkscape:object-nodes="true" inkscape:pageopacity="0.0" inkscape:current-layer="layer1" inkscape:window-y="24" inkscape:window-x="0" bordercolor="#666666" pagecolor="#ffffff" showgrid="false" borderopacity="1.0" inkscape:cx="105.01164" fit-margin-top="0" inkscape:cy="120.3563" inkscape:zoom="0.125" id="base" fit-margin-left="0">
	</sodipodi:namedview>
<g id="layer1" transform="translate(-47.961428,-36.542764)" inkscape:groupmode="layer" inkscape:label="Layer 1">
	
		<linearGradient id="path2987_1_" gradientUnits="userSpaceOnUse" x1="669.3579" y1="-882.361" x2="673.3032" y2="-168.7455" gradientTransform="matrix(0.3256 -0.0018 -0.0018 -0.3256 -46.5818 -11.7157)">
		<stop  offset="0" style="stop-color:#FFEE8D"/>
		<stop  offset="1" style="stop-color:#FFE23E"/>
	</linearGradient>
	
		<path id="path2987" inkscape:transform-center-x="0.85237623" sodipodi:nodetypes="scscscscscs" inkscape:transform-center-y="-34.066587" inkscape:connector-curvature="0" fill="url(#path2987_1_)" stroke="#000000" stroke-width="8" d="
		M242.344,267.928c-9.043,6.572-69.364-39.549-69.364-39.549s-60.301,46.146-69.346,39.577s16.179-78.189,16.179-78.189
		s-62.522-43.09-59.07-53.722c3.452-10.632,79.362-8.775,79.362-8.775s21.661-72.777,32.839-72.78
		c11.178-0.002,32.87,72.766,32.87,72.766s75.909-1.889,79.366,8.742c3.456,10.63-59.048,53.747-59.048,53.747
		S251.385,261.354,242.344,267.928z"/>
	
		<linearGradient id="path3775_1_" gradientUnits="userSpaceOnUse" x1="910.3774" y1="-784.676" x2="795.4069" y2="-635.2603" gradientTransform="matrix(0.3075 0 0 -0.2971 -85.0721 -27.4767)">
		<stop  offset="0" style="stop-color:#FFFFFF;stop-opacity:0"/>
		<stop  offset="1" style="stop-color:#FFFFFF"/>
	</linearGradient>
	<path id="path3775" inkscape:connector-curvature="0" opacity="0.465" fill="url(#path3775_1_)" enable-background="new    " d="
		M263.361,139.643c-58.315,0-110.484,21.466-145.299,55.244c-5.513,16.352-22.021,67.559-14.429,73.072
		c9.045,6.568,69.348-39.584,69.348-39.584s60.325,46.126,69.368,39.554c9.042-6.573-16.221-78.181-16.221-78.181
		s49.559-34.191,57.981-49.189C277.295,139.954,270.372,139.643,263.361,139.643z"/>
</g>
</svg>
