<?xml version="1.0" encoding="UTF-8" standalone="no"?>
<!-- Created with Inkscape (http://www.inkscape.org/) -->

<svg
   xmlns:dc="http://purl.org/dc/elements/1.1/"
   xmlns:cc="http://creativecommons.org/ns#"
   xmlns:rdf="http://www.w3.org/1999/02/22-rdf-syntax-ns#"
   xmlns:svg="http://www.w3.org/2000/svg"
   xmlns="http://www.w3.org/2000/svg"
   xmlns:sodipodi="http://sodipodi.sourceforge.net/DTD/sodipodi-0.dtd"
   xmlns:inkscape="http://www.inkscape.org/namespaces/inkscape"
   width="167.85715"
   height="211.07143"
   id="svg4354"
   version="1.1"
   inkscape:version="0.48.4 r9939"
   sodipodi:docname="Nowy dokument 8">
  <defs
     id="defs4356" />
  <sodipodi:namedview
     id="base"
     pagecolor="#ffffff"
     bordercolor="#666666"
     borderopacity="1.0"
     inkscape:pageopacity="0.0"
     inkscape:pageshadow="2"
     inkscape:zoom="0.7"
     inkscape:cx="-450.69549"
     inkscape:cy="97.821211"
     inkscape:document-units="px"
     inkscape:current-layer="layer1"
     showgrid="false"
     showguides="true"
     inkscape:guide-bbox="true"
     fit-margin-top="0"
     fit-margin-left="0"
     fit-margin-right="0"
     fit-margin-bottom="0"
     inkscape:window-width="1600"
     inkscape:window-height="838"
     inkscape:window-x="-8"
     inkscape:window-y="32"
     inkscape:window-maximized="1" />
  <metadata
     id="metadata4359">
    <rdf:RDF>
      <cc:Work
         rdf:about="">
        <dc:format>image/svg+xml</dc:format>
        <dc:type
           rdf:resource="http://purl.org/dc/dcmitype/StillImage" />
        <dc:title></dc:title>
      </cc:Work>
    </rdf:RDF>
  </metadata>
  <g
     inkscape:label="Layer 1"
     inkscape:groupmode="layer"
     id="layer1"
     transform="translate(-266.78571,-263.79075)">
    <path
       style="fill:#ffba00;fill-opacity:1;stroke:none"
       d="M 266.78571,427.00504 267.5,315.57647 l 32.14286,19.28571 10,53.92857 10.71428,-42.85714 30.35715,17.5 -0.35715,111.42857 L 327.5,461.6479 l 0.71429,-58.21429 -13.57143,49.28571 -13.92857,-6.78571 -13.57143,-63.92857 -0.35715,57.14286 z"
       id="path4373"
       inkscape:connector-curvature="0" />
    <path
       style="fill:#29006a;fill-opacity:1;stroke:none"
       d="m 353.57143,362.54076 0,111.60714 81.07143,-47.32144 0,-29.10714 -51.96429,31.25 0,-83.03571 z"
       id="path4375"
       inkscape:connector-curvature="0"
       sodipodi:nodetypes="ccccccc" />
    <path
       style="fill:#991039;fill-opacity:1;stroke:none"
       d="m 299.64286,296.29075 -28.92857,16.78572 62.85714,36.78571 c 9.64286,3.92857 41.42857,1.07143 62.85714,-13.74999 20,-12.14286 29.46428,-27.14287 15.35714,-39.82144 l -57.5,-32.5 -23.57142,13.57143 52.5,31.07143 c 7.14286,5.71429 4.10714,10.71428 -3.21429,15.35714 -7.67857,4.46429 -19.46428,6.96429 -27.85714,3.57143 z"
       id="path4383"
       inkscape:connector-curvature="0"
       sodipodi:nodetypes="ccccccccccc" />
  </g>
</svg>
